<svg width="106" height="32" viewBox="0 0 106 32" fill="none" xmlns="http://www.w3.org/2000/svg">
<g clip-path="url(#clip0_9_197)">
<path d="M0.124493 21.7922C0.124493 20.259 0.097702 18.9755 0.0148926 17.8271H2.91444L3.05205 19.7975H3.13242C3.78881 18.7575 4.99198 17.5251 7.23514 17.5251C8.98632 17.5251 10.3527 18.5115 10.9275 19.9874H10.9835C11.4487 19.2495 11.9942 18.7015 12.6226 18.3203C13.3618 17.7991 14.2118 17.5251 15.3042 17.5251C17.5206 17.5251 19.7613 19.029 19.7613 23.2986V31.146H16.4793V23.7881C16.4793 21.5742 15.7134 20.259 14.0998 20.259C12.9514 20.259 12.1026 21.0822 11.7483 22.0394C11.6496 22.4047 11.5945 22.7803 11.5839 23.1585V31.1472H8.30192V23.4313C8.30192 21.5754 7.56394 20.2602 6.00396 20.2602C4.74842 20.2602 3.90085 21.2466 3.5964 22.1746C3.46122 22.5034 3.40521 22.8882 3.40521 23.2681V31.1472H0.124493V21.7922ZM32.5492 27.9481C32.5492 29.15 32.604 30.3252 32.7392 31.1472H29.7033L29.4853 29.6713H29.4025C28.5817 30.7113 27.1861 31.4468 25.4666 31.4468C22.785 31.4468 21.2811 29.5069 21.2811 27.4817C21.2811 24.1145 24.2598 22.4218 29.1857 22.4486V22.2306C29.1857 21.3538 28.8289 19.9046 26.4761 19.9046C25.1622 19.9046 23.7958 20.3162 22.8934 20.8886L22.237 18.7002C23.2222 18.0974 24.9454 17.5239 27.0497 17.5239C31.3181 17.5239 32.5505 20.2346 32.5505 23.1305L32.5492 27.9481ZM29.2661 24.6394C26.8853 24.5834 24.6166 25.1033 24.6166 27.1273C24.6166 28.4401 25.4666 29.0429 26.5322 29.0429C27.8705 29.0429 28.8569 28.1649 29.1577 27.2089C29.2314 26.9699 29.2683 26.721 29.2673 26.4709V24.6394H29.2661ZM34.8728 21.7922C34.8728 20.259 34.8448 18.9755 34.7656 17.8271H37.7163L37.8795 19.8267H37.9623C38.5359 18.7855 39.9863 17.5251 42.2014 17.5251C44.5274 17.5251 46.9325 19.029 46.9325 23.2438V31.146H43.569V23.6262C43.569 21.7118 42.8566 20.2578 41.025 20.2578C39.6867 20.2578 38.7539 21.2162 38.3995 22.2294C38.2899 22.529 38.2631 22.9406 38.2631 23.3205V31.1448H34.8716L34.8728 21.7922ZM61.5191 12.4761V27.4001C61.5191 28.7677 61.5752 30.2473 61.6287 31.1472H58.622L58.4844 29.0429H58.4284C57.6368 30.5188 56.0208 31.448 54.0809 31.448C50.9074 31.448 48.3926 28.7409 48.3926 24.6406C48.3634 20.1811 51.1521 17.5263 54.3549 17.5263C56.1865 17.5263 57.4992 18.2923 58.1008 19.2811H58.1581V12.4774H61.5204V12.4761H61.5191ZM58.1568 23.379C58.1568 23.1074 58.13 22.7786 58.074 22.5034C57.7732 21.193 56.7089 20.125 55.1757 20.125C53.0153 20.125 51.8097 22.0406 51.8097 24.5286C51.8097 26.9605 53.0141 28.7397 55.1489 28.7397C56.514 28.7397 57.7184 27.808 58.046 26.3589C58.1288 26.0593 58.1581 25.7293 58.1581 25.3749V23.379H58.1568ZM63.8987 31.1472V17.8271H67.2927V31.1472H63.8987ZM69.6698 22.1222C69.6698 20.3175 69.6442 19.0303 69.5626 17.8283H72.4889L72.5961 20.3698H72.7069C73.3633 18.4835 74.9209 17.8283 76.3469 17.8283C76.6745 17.8283 76.8644 17.7723 77.1372 17.8283V20.7839C76.8145 20.7124 76.485 20.6757 76.1545 20.6743C74.5373 20.6743 73.4437 21.7143 73.1441 23.2158C73.0779 23.5595 73.0416 23.9082 73.0357 24.2582V31.1484H69.6698V22.1222ZM78.6984 31.1472V17.8271H82.0875V31.1472H78.6984Z" fill="#0D2B5B"/>
<path d="M103.199 3.73971C101.52 1.82413 99.7344 2.6912 98.3157 3.3963C97.719 3.691 93.4117 6.13266 93.4117 6.13266C91.0516 7.10567 89.214 6.04376 88.493 5.14991C88.4241 5.06514 88.3618 4.97516 88.3067 4.88078L88.1387 4.58973C87.8546 4.09847 87.539 3.62619 87.1937 3.17588C86.9841 2.90293 86.7571 2.64381 86.5141 2.40015C84.8994 0.769533 82.3189 -0.371532 78.0055 1.70114C75.9632 2.88483 69.3105 6.68553 69.3105 6.68553C66.8104 7.71456 64.8985 6.46146 64.2774 5.54203C64.2494 5.50761 64.2249 5.47049 64.2043 5.43121L64.1227 5.29239L63.7014 4.60312C63.5112 4.30119 63.3072 4.0082 63.09 3.7251C62.8784 3.45389 62.6511 3.19527 62.4093 2.95059C60.8055 1.32971 58.2384 0.191085 53.9627 2.22479C51.3774 3.70074 45.364 7.13855 45.364 7.13855L45.3615 7.14099L40.9604 9.65571L43.2377 12.4517C44.1961 13.3651 45.9972 14.863 48.7835 13.6001C48.7835 13.6001 56.4738 9.14668 56.5043 9.13328C63.0791 5.52498 66.3233 8.97253 67.7578 11.2705C67.8077 11.3423 67.8479 11.4203 67.893 11.4897L67.8954 11.4933C67.9137 11.5214 67.9247 11.5469 67.9405 11.5737L68.1024 11.8392C68.8015 12.8987 69.9035 13.5831 71.2175 13.5514C71.9421 13.5368 72.4341 13.3005 73.1502 12.9023L80.5908 8.58649L80.6067 8.57919C87.2643 4.92705 90.5633 8.59989 91.9723 10.8979C92.0819 11.0964 92.2061 11.2863 92.3339 11.4629C93.0317 12.4091 93.9938 13.029 95.2164 12.9985C96.0238 12.9827 96.9286 12.498 97.0638 12.4091L105.984 7.26033C105.987 7.26276 105.076 5.88545 103.199 3.73971Z" fill="#FDD213"/>
</g>
<defs>
<clipPath id="clip0_9_197">
<rect width="106" height="30.8672" fill="white" transform="translate(0 0.580811)"/>
</clipPath>
</defs>
</svg>
