<svg width="97" height="31" viewBox="0 0 97 31" fill="none" xmlns="http://www.w3.org/2000/svg">
<g clip-path="url(#clip0_9_171)">
<path d="M52.0662 14.3337C58.1314 11.5827 59.0284 2.60547 50.4012 2.60547H40.4103L36.718 9.84518H38.4556L34.0393 27.148H45.6228C54.0736 27.2203 57.8742 17.2692 52.0662 14.3337ZM45.6228 20.8495H42.727L43.8129 16.9402H46.5638C49.8218 17.5916 47.7949 20.9942 45.6228 20.8495ZM47.3604 12.5237H44.899L45.6228 9.1211H48.3738C51.032 9.77273 48.7361 12.6686 47.3604 12.5237Z" fill="#005FAF" stroke="#005FAF" stroke-width="0.20759"/>
<path d="M75.7833 11.8516L79.5761 5.15597L74.4439 2.47888L73.7744 3.30509C71.0058 1.8395 56.5079 3.86309 55.6001 18.1646C56.1427 30.1619 69.5861 28.0038 70.9047 27.2425L74.6021 19.5993C70.9809 21.9845 63.5662 23.1295 63.2525 15.9646C63.9029 10.0561 70.8787 7.84966 75.7833 11.8516ZM94.7101 2.60551H83.05L79.3436 9.6285H81.2477L72.4604 27.1481H80.966L82.7122 22.9224H87.9333L88.0635 27.1481H95.8932L94.7101 2.60551ZM85.0777 17.2329L87.9331 10.4171L88.0633 17.2329H85.0777Z" fill="#005FAF" stroke="#005FAF" stroke-width="0.20759"/>
<path d="M21.8945 25.9765L22.3474 25.8451L21.8507 25.1586L21.8945 25.9765ZM14.4582 25.8596L14.3706 26.4732C14.596 26.4512 14.8736 26.6455 14.9842 26.2102C14.9759 25.871 14.7177 25.8523 14.4582 25.8596ZM18.0669 25.8451C18.0293 25.678 17.8898 25.5549 17.5409 25.6699L17.6578 26.2978C17.9444 26.2343 18.0918 26.0647 18.0669 25.8451ZM9.91465 25.3311L9.77515 25.8891C9.99934 25.8984 10.2619 26.0803 10.4108 25.7496C10.4208 25.5424 10.4293 25.3361 9.91465 25.3311ZM17.7601 26.7655L17.8624 27.4084C18.1018 27.4145 18.3202 27.2706 18.2569 26.9702C18.1958 26.6812 17.9532 26.7269 17.7601 26.7655Z" fill="#005FAF"/>
<path d="M27.2619 2.93638C19.5257 -1.00472 10.2865 -0.895115 2.91534 2.76449C-0.885639 9.45575 -1.00666 18.8179 2.91534 27.1098C11.0361 31.2193 20.0177 30.9486 27.319 27.2817C30.7505 20.2417 31.3172 11.7704 27.2619 2.93638ZM14.1962 22.9165L13.7376 22.9217C13.6241 21.6546 13.3212 20.5896 12.6715 19.7746C9.69191 16.0382 3.60122 18.8513 5.16624 12.5013C5.97999 9.25501 15.262 7.34041 14.1962 22.9165ZM5.17724 16.6448C5.82783 17.969 9.90386 18.186 11.3188 19.1996C13.5633 20.8074 13.2411 22.9223 13.2411 22.9223H12.7117C11.6696 19.7281 8.74489 22.2572 6.40223 21.397C4.93145 20.8738 3.86361 18.6063 5.17724 16.6448ZM12.6036 27.0577L12.8228 25.3192L13.2172 25.3484L13.0418 27.2622C12.8649 28.1052 11.608 27.9925 11.4494 27.1891L11.6538 25.2023L12.1213 25.2756L11.9169 26.9409C11.9428 27.492 12.4956 27.459 12.6036 27.0577ZM10.5046 27.5325L10.055 27.4239C10.1077 27.0523 10.5484 26.2963 9.67738 26.2963L9.43492 27.2844L8.93878 27.1914L9.46585 24.8193C10.7542 24.9596 10.8669 25.3181 10.8924 25.703C10.8415 26.0015 10.762 26.2099 10.5048 26.261C10.8058 26.5342 10.5084 27.1067 10.5046 27.5325ZM7.64881 24.8756C7.52488 25.04 7.27681 25.6144 7.2409 26.0721C7.2027 26.5572 7.66874 26.4551 7.78478 26.3984C7.87841 26.353 7.94795 25.9633 7.94795 25.9633L7.62162 25.8545L7.73039 25.5284L8.46485 25.7732L8.11132 26.9971L7.81218 26.9153L7.83938 26.725C7.47319 26.8919 6.80288 26.7667 6.7242 26.3443C6.64553 26.0048 6.88384 24.9758 7.26809 24.495C7.64154 24.0275 8.55141 24.4845 8.57362 24.767C8.59563 25.0485 8.48457 25.3653 8.48457 25.3653L8.14205 25.3007C8.14205 25.3007 8.16301 25.199 8.1929 25.0387C8.22446 24.8689 7.78167 24.6989 7.64881 24.8756ZM14.3276 26.8676L14.24 27.9197L13.8749 27.9051L14.0063 25.4068C14.9182 25.4257 15.4409 25.5519 15.4235 26.1958C15.3691 27.0756 14.6566 26.8778 14.3276 26.8676ZM15.2366 22.9221H14.6257C14.5715 20.7586 14.9875 16.8013 13.8508 13.889C12.9895 11.6813 10.8098 10.6882 10.3267 8.90481C9.56196 6.08199 10.8636 3.02772 15.2366 2.79252C19.0279 3.18175 20.1927 6.10856 19.546 8.8336C18.4342 11.5582 17.3221 11.1667 15.9377 13.8807C14.8069 16.7901 15.2375 20.6017 15.2366 22.9221ZM22.0122 26.9261L21.5885 27.0723L21.4569 24.5594L21.9536 24.428L23.1809 26.5024L22.8448 26.7217L22.4357 26.1375L21.9682 26.3127L22.0122 26.9261ZM17.0693 22.9221H16.5806C16.9833 17.3658 23.9656 18.5729 24.6037 16.6448C25.7073 18.5563 25.3106 20.168 24.1583 20.9942C21.2948 23.0481 18.549 19.4743 17.0693 22.9221ZM19.6602 25.7283L19.8794 26.8825C20.0158 27.1485 20.1084 27.0993 20.3176 27.0725C20.5603 26.8969 20.5096 26.7258 20.4638 26.5026L20.8875 26.4443C20.9979 27.2805 20.6004 27.3658 20.3031 27.4231C19.6656 27.4688 19.5406 27.3446 19.3681 26.5174C19.2676 25.8093 19.0941 25.0616 19.6895 24.925C20.6668 24.7757 20.6091 25.2156 20.6975 25.5239L20.2738 25.5971C20.2062 25.3323 20.1088 25.2272 19.8939 25.2467C19.6982 25.3366 19.6178 25.4821 19.6602 25.7283ZM18.769 26.9261C18.7893 27.29 18.6658 27.5317 18.4329 27.6128L17.4394 27.8173L17.045 25.4068C17.2488 25.3736 18.2484 25.0074 18.4912 25.67C18.611 26.0746 18.4869 26.2197 18.3451 26.4003C18.6139 26.4867 18.7047 26.6959 18.769 26.9261ZM16.2177 14.8292C18.431 8.59737 23.4956 9.69863 24.6189 12.5015C26.1578 18.1258 21.2026 16.5834 18.0285 18.8897C16.8289 19.933 16.1976 21.13 16.1882 22.9445H15.6444C15.6118 19.2897 15.5526 16.7017 16.2177 14.8292Z" fill="#005FAF"/>
</g>
<defs>
<clipPath id="clip0_9_171">
<rect width="96.0204" height="30.112" fill="white"/>
</clipPath>
</defs>
</svg>
