<svg xmlns="http://www.w3.org/2000/svg" width="143" height="30" fill="none" viewBox="0 0 143 30"><path fill="#C82E37" fill-rule="evenodd" d="M106.365 17.8711C106.365 16.365 105.43 14.8565 103.637 14.498V14.4258C105.073 13.923 106.077 12.5597 106.077 11.1241C106.077 8.68376 104.211 7.3918 100.91 7.3918C98.9722 7.3918 96.9625 7.3918 95.6713 7.46317V22.4639C97.6089 22.4639 99.2593 22.5353 100.192 22.5353C104.857 22.5361 106.365 20.0235 106.365 17.8711ZM102.919 11.5548C102.919 12.9189 101.914 13.7081 99.8319 13.7081H98.6851V9.76081C99.1871 9.76081 99.7605 9.68863 100.407 9.68863C102.273 9.68944 102.919 10.4786 102.919 11.5548ZM103.207 17.9424C103.207 19.3066 102.203 20.1679 100.263 20.1679C99.617 20.1679 99.0436 20.0965 98.6859 20.0965V15.8605H99.9771C101.914 15.8605 103.207 16.4356 103.207 17.9424ZM117.273 22.4647C117.202 21.6034 117.202 20.5256 117.202 19.6659V15.0009C117.202 12.6318 116.126 11.1963 112.537 11.1963C111.031 11.1963 109.593 11.4834 108.445 11.8419L108.733 14.2823C109.666 13.7081 111.03 13.421 112.034 13.421C113.684 13.421 114.258 13.9952 114.258 15.1436V15.7186C110.383 15.7186 107.726 17.1541 107.726 19.8086C107.726 21.6034 108.875 22.6805 110.956 22.6805C112.679 22.6805 114.042 21.8192 114.617 20.5994C114.546 21.1728 114.473 21.8192 114.473 22.4656H117.273V22.4647ZM114.258 17.8711C114.258 19.1639 113.254 20.5256 111.819 20.5256C111.03 20.5256 110.526 20.0965 110.526 19.3788C110.526 18.4445 111.173 17.584 114.258 17.584V17.8711ZM129.761 22.4647V14.7129C129.761 12.7754 128.972 11.1963 126.389 11.1963C124.523 11.1963 123.23 12.129 122.513 13.421C122.657 12.7754 122.657 11.9141 122.657 11.4113H119.93V22.4639H122.8V17.1525C122.8 15.2142 124.02 13.5637 125.456 13.5637C126.532 13.5637 126.892 14.2815 126.892 15.4307V22.4639H129.761V22.4647ZM142.537 22.4647L138.302 16.5069L142.249 11.4121H138.661L135.359 16.0049V6.24419H132.489V22.4647H135.359V17.009L138.876 22.4647H142.537ZM49.4501 14.7129C49.4501 9.4737 46.2205 7.17688 41.9854 7.17688C37.5361 7.17688 33.9473 10.2628 33.9473 15.1428C33.9473 19.8808 36.3868 22.751 41.4112 22.751C45.8613 22.7518 49.4501 19.6659 49.4501 14.7129ZM45.5028 15.0009C45.5028 18.3731 43.4217 19.5929 41.6269 19.5929C39.043 19.5929 37.8945 17.7997 37.8945 14.8565C37.8945 11.7705 39.7607 10.335 41.6983 10.335C44.1386 10.335 45.5028 11.9141 45.5028 15.0009ZM62.5838 22.1055L62.1532 19.0195C61.3632 19.3066 60.1435 19.5215 59.2822 19.5215C56.3397 19.5215 55.0478 17.8711 55.0478 14.9279C55.0478 12.2012 56.4833 10.4786 59.1386 10.4786C60.1435 10.4786 61.1483 10.6221 62.081 10.9092L62.5117 7.75108C61.5076 7.46398 60.287 7.39261 59.2108 7.39261C53.828 7.39261 50.9569 10.6221 50.9569 15.5029C50.9569 18.9481 52.6074 22.6805 58.5644 22.6805C59.9285 22.6805 61.3641 22.4647 62.5838 22.1055ZM76.8669 17.7997C76.8669 16.292 75.8612 14.8565 74.2107 14.498V14.4258C75.6462 13.8516 76.5789 12.5597 76.5789 11.1963C76.5789 8.68458 74.4978 7.39261 70.9812 7.39261C68.9715 7.39261 66.5319 7.39261 65.0242 7.46398V22.4647C67.3924 22.4647 69.1872 22.5361 70.1913 22.5361C74.9285 22.5361 76.8669 20.1679 76.8669 17.7997ZM72.6333 11.6992C72.6333 12.8476 71.699 13.4932 69.905 13.4932H68.8288V10.1915H70.3356C71.9139 10.1915 72.6333 10.7657 72.6333 11.6992ZM72.8466 17.8711C72.8466 19.0195 71.9139 19.7373 70.2635 19.7373C69.6893 19.7373 69.1151 19.6659 68.8279 19.6659V16.0763H70.0477C71.7712 16.0763 72.8466 16.6513 72.8466 17.8711ZM90.0728 22.1055L89.6422 19.0195C88.8514 19.3066 87.6316 19.5215 86.8433 19.5215C83.9001 19.5215 82.6073 17.8711 82.6073 14.9279C82.6073 12.2012 84.0436 10.4786 86.6276 10.4786C87.6316 10.4786 88.6365 10.6221 89.5692 10.9092L89.9998 7.75108C88.9958 7.46398 87.8474 7.39261 86.6989 7.39261C81.3161 7.39261 78.4459 10.6221 78.4459 15.5029C78.4459 18.9481 80.0964 22.6805 86.0526 22.6805C87.4881 22.6805 88.9244 22.4647 90.0728 22.1055ZM9.18741 10.2636L2.94331 6.10145C3.94817 4.7373 5.16795 3.51752 6.60347 2.58484L11.9863 8.11118C10.9092 8.61239 9.90436 9.33015 9.18741 10.2636ZM7.53534 14.2109L0.429932 11.4834C0.860587 9.76081 1.50698 8.18174 2.43966 6.74703L8.82731 10.6943C8.11036 11.6992 7.67971 12.9189 7.53534 14.2109ZM16.0771 17.4404L8.39747 14.498C8.61956 13.3249 9.11097 12.2194 9.83299 11.2685L16.0771 15.2158V17.4404ZM16.0771 14.8565L10.1201 10.9092C10.8378 10.0479 11.7713 9.40233 12.8476 8.97168L16.0771 12.2012V14.8565ZM0.861398 19.9522C0.285785 18.3651 -0.00577318 16.6891 8.66003e-05 15.0009C8.66003e-05 13.9952 0.0714571 13.0625 0.28719 12.129L7.53615 14.7129V15C7.53615 16.7219 8.11036 18.3723 9.18741 19.6651H9.25878C8.60113 18.5049 8.25496 17.1942 8.25391 15.8605C8.25391 15.5734 8.25391 15.2871 8.32528 15L16.0771 17.7259V19.9514H0.861398V19.9522ZM1.36424 21.3163C1.29205 21.0292 1.1485 20.7413 1.00576 20.455H5.52724L6.31718 21.3163H12.9919L11.5564 22.8224H3.30178C3.08605 22.0341 2.29692 21.3877 1.36424 21.3163ZM18.4453 21.674C18.9516 21.3809 19.4319 21.045 19.8808 20.6699C20.1679 20.4542 20.455 20.1679 20.6699 19.8808C21.8184 18.5167 22.5361 16.8662 22.5361 15C22.5362 14.0104 22.3414 13.0304 21.9627 12.116C21.584 11.2016 21.0289 10.3708 20.3291 9.67101C19.6293 8.9712 18.7985 8.4161 17.8841 8.03741C16.9697 7.65873 15.9897 7.46387 15 7.46398C14.1387 7.46398 13.2774 7.60753 12.5597 7.89463L7.32042 2.08119C9.6531 0.725075 12.3018 0.00730365 15 9.33114e-05C16.9719 -0.00687383 18.9256 0.376379 20.7487 1.12778C22.5718 1.87918 24.2282 2.98388 25.6224 4.37823C27.0167 5.77258 28.1213 7.42902 28.8726 9.25214C29.6239 11.0753 30.0071 13.029 30 15.0009C30 23.2539 23.3252 30 15 30C10.9092 30 7.17687 28.3496 4.44938 25.6221H22.8224L22.966 25.4793L3.58807 24.6886L3.44452 24.5458H23.9716L24.043 24.4015L2.58402 23.3974L2.51184 23.3244H10.8378C10.8378 23.3252 15.0714 23.4688 18.4453 21.674Z" clip-rule="evenodd"/></svg>