<svg width="48" height="48" viewBox="0 0 48 48" fill="none" xmlns="http://www.w3.org/2000/svg">
<circle cx="24" cy="24" r="24" fill="#F5E8F9"/>
<g clip-path="url(#clip0_1063_497)">
<path d="M30 24V31.5H18V24" stroke="#A02FBD" stroke-width="2" stroke-linecap="round" stroke-linejoin="round"/>
<path d="M31.5 20.25H16.5V24H31.5V20.25Z" stroke="#A02FBD" stroke-width="2" stroke-linecap="round" stroke-linejoin="round"/>
<path d="M24 31.5V20.25" stroke="#A02FBD" stroke-width="2" stroke-linecap="round" stroke-linejoin="round"/>
<path d="M24 20.25H27.375C27.8723 20.25 28.3492 20.0525 28.7008 19.7008C29.0525 19.3492 29.25 18.8723 29.25 18.375C29.25 17.8777 29.0525 17.4008 28.7008 17.0492C28.3492 16.6975 27.8723 16.5 27.375 16.5C24.75 16.5 24 20.25 24 20.25Z" stroke="#A02FBD" stroke-width="2" stroke-linecap="round" stroke-linejoin="round"/>
<path d="M24 20.25H20.625C20.1277 20.25 19.6508 20.0525 19.2992 19.7008C18.9475 19.3492 18.75 18.8723 18.75 18.375C18.75 17.8777 18.9475 17.4008 19.2992 17.0492C19.6508 16.6975 20.1277 16.5 20.625 16.5C23.25 16.5 24 20.25 24 20.25Z" stroke="#A02FBD" stroke-width="2" stroke-linecap="round" stroke-linejoin="round"/>
</g>
<defs>
<clipPath id="clip0_1063_497">
<rect width="18" height="18" fill="white" transform="translate(15 15)"/>
</clipPath>
</defs>
</svg>
