<svg width="56" height="30" viewBox="0 0 56 30" fill="none" xmlns="http://www.w3.org/2000/svg">
<g clip-path="url(#clip0_172_592)">
<path d="M24.0337 26.0603C24.0337 28.2372 22.2746 29.9963 20.0977 29.9963C17.9208 29.9963 16.1617 28.2372 16.1617 26.0603V23.2128C16.1617 25.3897 14.4026 27.1488 12.2367 27.1488C10.0599 27.1488 8.31175 25.3897 8.31175 23.2128H8.30076V21.7176C8.2238 23.9384 6.39873 25.7085 4.15588 25.7085C1.86904 25.7195 0 23.8615 0 21.5636C0 21.5197 0 21.4867 0.0109944 21.4427V8.56828C0.0109944 8.52431 0 8.49132 0 8.44735C0 6.16052 1.86904 4.29147 4.15588 4.29147C6.39873 4.29147 8.2238 6.06157 8.30076 8.29342V3.93965H8.31175C8.30076 1.76276 10.0599 0.00366211 12.2367 0.00366211C14.4026 0.00366211 16.1617 1.76276 16.1617 3.93965V6.78719C16.1617 4.61031 17.9208 2.85121 20.0977 2.85121C22.2636 2.85121 24.0337 4.61031 24.0337 6.78719V8.22746C24.0447 6.06157 25.8038 4.31346 27.9587 4.31346C30.1246 4.31346 31.8837 6.07256 31.8947 8.22746V6.79819C31.8947 4.6213 33.6538 2.8622 35.8307 2.8622C38.0076 2.8622 39.7557 4.6213 39.7557 6.79819V8.24945H39.7777C39.7777 6.07256 41.5368 4.31346 43.7027 4.31346C45.8136 4.31346 47.5287 5.97361 47.6277 8.05155V5.66577V5.57781C47.6277 3.27999 49.4857 1.42194 51.7725 1.42194C54.0594 1.42194 55.9284 3.27999 55.9284 5.56682V21.5526C55.9284 23.8505 54.0704 25.6975 51.7835 25.6975C49.4967 25.6975 47.6277 23.8395 47.6277 21.5526V23.2018C47.6277 25.3677 45.8686 27.1378 43.6917 27.1378C41.5148 27.1378 39.7667 25.3787 39.7667 23.2018H39.7557V21.7835C39.7557 23.9494 37.9966 25.7085 35.8307 25.7085C33.6538 25.7085 31.8947 23.9494 31.8947 21.7835V23.2128C31.8947 25.3787 30.1356 27.1378 27.9587 27.1378C25.7928 27.1378 24.0337 25.3787 24.0337 23.2128V26.0603Z" fill="#FFD400"/>
<path d="M53.6196 14.7361C53.0039 14.4063 52.3003 14.2194 51.5526 14.2194C50.805 14.2194 50.1014 14.4063 49.4857 14.7361C48.6831 15.1759 48.0235 15.8575 47.6167 16.6821C47.2099 15.8465 46.5612 15.1649 45.7476 14.7361C45.1319 14.4063 44.4283 14.2194 43.6807 14.2194C42.9331 14.2194 42.2294 14.4063 41.6137 14.7361C40.8001 15.1759 40.1405 15.8575 39.7447 16.7041C39.3379 15.8685 38.6782 15.1759 37.8646 14.7361C37.249 14.4063 36.5453 14.2194 35.8087 14.2194C35.0611 14.2194 34.3574 14.4063 33.7418 14.7361C32.9392 15.1649 32.2795 15.8465 31.8837 16.6711C31.4769 15.8465 30.8282 15.1759 30.0257 14.7361C29.41 14.4063 28.7063 14.2194 27.9587 14.2194C27.2111 14.2194 26.5075 14.4063 25.8918 14.7361C25.0782 15.1759 24.4185 15.8575 24.0227 16.6821C23.6159 15.8465 22.9563 15.1649 22.1537 14.7361C21.538 14.4063 20.8344 14.2194 20.0977 14.2194C19.3501 14.2194 18.6465 14.4063 18.0308 14.7361C17.2172 15.1759 16.5575 15.8575 16.1617 16.6821C15.7659 15.8465 15.1063 15.1649 14.2927 14.7361C13.677 14.4063 12.9734 14.2194 12.2257 14.2194C11.4781 14.2194 10.7745 14.4063 10.1588 14.7361C9.34522 15.1759 8.68556 15.8575 8.28976 16.6821C7.89396 15.8465 7.2343 15.1649 6.42072 14.7361C5.80503 14.4063 5.10139 14.2194 4.35377 14.2194C3.60616 14.2194 2.90252 14.4063 2.28683 14.7361C0.934522 15.4727 0 16.924 0 18.5841C0 20.9919 1.957 22.9489 4.36477 22.9489C6.10188 22.9489 7.58612 21.9374 8.30076 20.4861C9.01539 21.9374 10.5106 22.9489 12.2367 22.9489C13.9629 22.9489 15.4581 21.9374 16.1617 20.4861C16.8654 21.9374 18.3606 22.9489 20.0977 22.9489C21.8238 22.9489 23.3191 21.9374 24.0337 20.4861C24.7374 21.9374 26.2326 22.9489 27.9697 22.9489C29.6958 22.9489 31.1801 21.9484 31.8947 20.4971C32.6093 21.9484 34.0936 22.9489 35.8197 22.9489C37.5568 22.9489 39.052 21.9374 39.7557 20.4641C40.4593 21.9264 41.9546 22.9489 43.6917 22.9489C45.4178 22.9489 46.913 21.9374 47.6277 20.4861C48.3313 21.9374 49.8265 22.9489 51.5636 22.9489C53.9824 22.9489 55.9284 20.9919 55.9284 18.5841C55.9284 16.924 54.9939 15.4727 53.6196 14.7361Z" fill="#ED1C24"/>
<path d="M38.0405 18.5513V14.8242C37.7656 14.6592 37.4687 14.5273 37.1499 14.4174V16.8581L37.0839 16.8031C37.018 16.7372 36.93 16.6822 36.8421 16.6162C36.7431 16.5613 36.6332 16.5063 36.5232 16.4623C36.4133 16.4183 36.2924 16.3854 36.1714 16.3524C36.0505 16.3194 35.9295 16.3084 35.8196 16.3084C35.5117 16.3084 35.2149 16.3634 34.951 16.4843C34.6762 16.6052 34.4453 16.7702 34.2474 16.9571C34.0495 17.155 33.8846 17.3968 33.7746 17.6607C33.6537 17.9246 33.5987 18.2214 33.5987 18.5293C33.5987 18.8371 33.6537 19.123 33.7746 19.3978C33.8846 19.6727 34.0495 19.9036 34.2474 20.1015C34.4453 20.2994 34.6872 20.4643 34.951 20.5742C35.2149 20.6952 35.5117 20.7501 35.8196 20.7501C36.1274 20.7501 36.4243 20.6952 36.6881 20.5742C36.963 20.4643 37.1939 20.2994 37.3918 20.1015C37.5897 19.9036 37.7546 19.6617 37.8645 19.3978C37.9855 19.167 38.0405 18.8701 38.0405 18.5513ZM37.1499 18.5513C37.1499 18.7382 37.1169 18.9031 37.04 19.068C36.974 19.2329 36.875 19.3649 36.7541 19.4968C36.6332 19.6177 36.4902 19.7057 36.3253 19.7826C36.1604 19.8596 35.9955 19.8926 35.8086 19.8926C35.6217 19.8926 35.4458 19.8596 35.2809 19.7826C35.1269 19.7057 34.973 19.6177 34.8521 19.4968C34.7311 19.3758 34.6432 19.2329 34.5662 19.068C34.5003 18.9031 34.4563 18.7272 34.4563 18.5513C34.4563 18.3644 34.5003 18.1884 34.5662 18.0235C34.6432 17.8586 34.7311 17.7267 34.8521 17.6057C34.973 17.4848 35.116 17.3859 35.2809 17.3199C35.6107 17.177 35.9955 17.177 36.3143 17.3199C36.4793 17.3859 36.6222 17.4848 36.7431 17.6057C36.8641 17.7267 36.963 17.8696 37.029 18.0235C37.1169 18.1994 37.1499 18.3754 37.1499 18.5513ZM5.92587 17.012C5.72797 16.8141 5.49709 16.6492 5.22223 16.5283C4.95837 16.4073 4.66152 16.3524 4.35368 16.3524C4.04583 16.3524 3.74899 16.4073 3.48512 16.5283C3.21026 16.6492 2.97938 16.8141 2.78148 17.012C2.58358 17.2209 2.41867 17.4518 2.30872 17.7157C2.18778 17.9796 2.13281 18.2764 2.13281 18.5842C2.13281 18.8921 2.18778 19.1889 2.30872 19.4528C2.42966 19.7277 2.58358 19.9695 2.78148 20.1564C2.97938 20.3543 3.21026 20.5193 3.48512 20.6292C3.75998 20.7501 4.04583 20.8051 4.35368 20.8051C4.66152 20.8051 4.95837 20.7501 5.22223 20.6292C5.49709 20.5083 5.72797 20.3543 5.92587 20.1564C6.12377 19.9585 6.28869 19.7277 6.39863 19.4528C6.51957 19.1889 6.57454 18.8921 6.57454 18.5842C6.57454 18.2764 6.51957 17.9796 6.39863 17.7157C6.28869 17.4518 6.12377 17.2209 5.92587 17.012ZM5.58505 19.112C5.50809 19.2769 5.40914 19.4198 5.29919 19.5408C5.17826 19.6617 5.03533 19.7607 4.87041 19.8266C4.7055 19.8926 4.52959 19.9366 4.35368 19.9366C4.16677 19.9366 4.00186 19.8926 3.83694 19.8266C3.67203 19.7497 3.5291 19.6617 3.41916 19.5408C3.29822 19.4198 3.21026 19.2769 3.1333 19.112C3.06733 18.9471 3.02336 18.7712 3.02336 18.5952C3.02336 18.4083 3.06733 18.2324 3.1333 18.0675C3.21026 17.9026 3.29822 17.7597 3.41916 17.6387C3.54009 17.5178 3.68302 17.4298 3.83694 17.3529C4.00186 17.2869 4.17777 17.2429 4.35368 17.2429C4.54058 17.2429 4.7055 17.2869 4.87041 17.3529C5.02433 17.4298 5.16726 17.5178 5.29919 17.6387C5.42013 17.7597 5.51908 17.9026 5.58505 18.0675C5.72797 18.3863 5.72797 18.7821 5.58505 19.112ZM13.7978 17.012C13.5999 16.8141 13.3581 16.6492 13.0942 16.5283C12.8303 16.4073 12.5335 16.3524 12.2257 16.3524C11.9068 16.3524 11.621 16.4073 11.3571 16.5283C11.0822 16.6492 10.8514 16.8141 10.6535 17.012C10.4446 17.2209 10.2906 17.4518 10.1807 17.7157C10.0598 17.9796 10.0048 18.2764 10.0048 18.5842C10.0048 18.8921 10.0598 19.1889 10.1807 19.4528C10.3016 19.7277 10.4556 19.9695 10.6535 20.1564C10.8514 20.3543 11.0822 20.5193 11.3571 20.6292C11.621 20.7501 11.9178 20.8051 12.2257 20.8051C12.5335 20.8051 12.8303 20.7501 13.0942 20.6292C13.3581 20.5083 13.5999 20.3543 13.7978 20.1564C13.9957 19.9585 14.1607 19.7277 14.2706 19.4528C14.3915 19.1889 14.4465 18.8921 14.4465 18.5842C14.4465 18.2764 14.3915 17.9796 14.2706 17.7157C14.1497 17.4518 13.9957 17.2209 13.7978 17.012ZM13.446 19.112C13.3691 19.2769 13.2811 19.4198 13.1602 19.5408C13.0392 19.6617 12.8963 19.7607 12.7424 19.8266C12.5775 19.8926 12.4016 19.9366 12.2257 19.9366C12.0387 19.9366 11.8628 19.8926 11.6979 19.8266C11.544 19.7497 11.4011 19.6617 11.2801 19.5408C11.1592 19.4198 11.0712 19.2769 10.9943 19.112C10.9283 18.9471 10.8843 18.7712 10.8843 18.5952C10.8843 18.4083 10.9173 18.2324 10.9943 18.0675C11.0712 17.9026 11.1702 17.7597 11.2801 17.6387C11.4011 17.5178 11.544 17.4298 11.6979 17.3529C11.8628 17.2869 12.0387 17.2429 12.2257 17.2429C12.4016 17.2429 12.5775 17.2869 12.7424 17.3529C12.8963 17.4298 13.0392 17.5178 13.1602 17.6387C13.2811 17.7597 13.3801 17.9026 13.446 18.0675C13.589 18.3863 13.589 18.7821 13.446 19.112ZM45.2528 17.012C45.0549 16.8141 44.813 16.6492 44.5491 16.5283C44.2853 16.4073 43.9884 16.3524 43.6806 16.3524C43.3727 16.3524 43.0759 16.4073 42.812 16.5283C42.5372 16.6492 42.3063 16.8141 42.1084 17.012C41.9105 17.2209 41.7566 17.4518 41.6356 17.7157C41.5147 17.9796 41.4597 18.2764 41.4597 18.5842C41.4597 18.8921 41.5147 19.1889 41.6356 19.4528C41.7566 19.7277 41.9105 19.9695 42.1084 20.1564C42.3063 20.3543 42.5372 20.5193 42.812 20.6292C43.0869 20.7501 43.3727 20.8051 43.6806 20.8051C43.9884 20.8051 44.2853 20.7501 44.5491 20.6292C44.813 20.5083 45.0549 20.3543 45.2528 20.1564C45.4507 19.9585 45.6046 19.7277 45.7255 19.4528C45.8465 19.1889 45.9014 18.8921 45.9014 18.5842C45.9014 18.2764 45.8465 17.9796 45.7255 17.7157C45.6046 17.4518 45.4507 17.2209 45.2528 17.012ZM44.9119 19.112C44.835 19.2769 44.747 19.4198 44.6261 19.5408C44.5051 19.6617 44.3622 19.7607 44.1973 19.8266C44.0324 19.8926 43.8675 19.9366 43.6806 19.9366C43.4937 19.9366 43.3288 19.8926 43.1638 19.8266C42.9989 19.7497 42.856 19.6617 42.7351 19.5408C42.6141 19.4198 42.5152 19.2769 42.4492 19.112C42.3832 18.9471 42.3503 18.7712 42.3503 18.5952C42.3503 18.4083 42.3832 18.2324 42.4492 18.0675C42.5152 17.9026 42.6141 17.7597 42.7351 17.6387C42.856 17.5178 42.9989 17.4298 43.1638 17.3529C43.3288 17.2869 43.4937 17.2429 43.6806 17.2429C43.8675 17.2429 44.0324 17.2869 44.1973 17.3529C44.3622 17.4298 44.5051 17.5178 44.6261 17.6387C44.747 17.7597 44.835 17.9026 44.9119 18.0675C45.0439 18.3863 45.0439 18.7821 44.9119 19.112ZM53.1247 17.012C52.9159 16.8141 52.685 16.6492 52.4211 16.5283C52.1462 16.4073 51.8604 16.3524 51.5525 16.3524C51.2447 16.3524 50.9479 16.4073 50.684 16.5283C50.4201 16.6492 50.1782 16.8141 49.9804 17.012C49.7825 17.2209 49.6285 17.4518 49.5076 17.7157C49.3867 17.9796 49.3317 18.2764 49.3317 18.5842C49.3317 18.8921 49.3867 19.1889 49.5076 19.4528C49.6285 19.7277 49.7825 19.9695 49.9804 20.1564C50.1782 20.3543 50.4091 20.5193 50.684 20.6292C50.9589 20.7501 51.2447 20.8051 51.5525 20.8051C51.8604 20.8051 52.1572 20.7501 52.4211 20.6292C52.685 20.5083 52.9159 20.3543 53.1247 20.1564C53.3226 19.9585 53.4766 19.7277 53.5975 19.4528C53.7184 19.1889 53.7734 18.8921 53.7734 18.5842C53.7734 18.2764 53.7184 17.9796 53.5975 17.7157C53.4766 17.4518 53.3116 17.2209 53.1247 17.012ZM52.7729 19.112C52.696 19.2769 52.608 19.4198 52.4871 19.5408C52.3661 19.6617 52.2232 19.7607 52.0583 19.8266C51.8934 19.8926 51.7175 19.9366 51.5416 19.9366C51.3546 19.9366 51.1787 19.8926 51.0248 19.8266C50.8599 19.7497 50.717 19.6617 50.607 19.5408C50.4861 19.4198 50.3871 19.2769 50.3212 19.112C50.2552 18.9471 50.2222 18.7712 50.2222 18.5952C50.2222 18.4083 50.2552 18.2324 50.3212 18.0675C50.3981 17.9026 50.4861 17.7597 50.607 17.6387C50.728 17.5178 50.8709 17.4298 51.0248 17.3529C51.1897 17.2869 51.3546 17.2429 51.5416 17.2429C51.7285 17.2429 51.8934 17.2869 52.0583 17.3529C52.2232 17.4298 52.3661 17.5178 52.4871 17.6387C52.608 17.7597 52.696 17.9026 52.7729 18.0675C52.9159 18.3863 52.9159 18.7821 52.7729 19.112ZM21.0322 17.6277C21.1531 17.7487 21.252 17.8916 21.318 18.0565C21.362 18.1445 21.384 18.2434 21.406 18.3424H22.3075C22.2855 18.1115 22.2305 17.9026 22.1426 17.7047C22.0216 17.4298 21.8567 17.1989 21.6698 17.001C21.4719 16.8031 21.23 16.6382 20.9662 16.5283C20.7023 16.4073 20.4055 16.3524 20.0976 16.3524C19.7898 16.3524 19.4929 16.4073 19.2291 16.5283C18.9652 16.6492 18.7233 16.8031 18.5254 17.001C18.3275 17.1989 18.1736 17.4408 18.0527 17.7047C17.9427 17.9796 17.8768 18.2654 17.8768 18.5842V20.6952H18.7673V18.5183C18.7783 18.3534 18.8113 18.1994 18.8773 18.0565C18.9432 17.8916 19.0422 17.7487 19.1631 17.6277C19.284 17.5068 19.427 17.4188 19.5919 17.3419C19.9217 17.1989 20.3065 17.1989 20.6364 17.3419C20.7683 17.4078 20.9112 17.5068 21.0322 17.6277ZM30.0036 17.7707C29.9046 17.4958 29.7507 17.2539 29.5638 17.045C29.3769 16.8361 29.135 16.6712 28.8711 16.5393C28.6073 16.4183 28.2884 16.3524 27.9476 16.3524C27.6398 16.3524 27.3539 16.4073 27.0791 16.5283C26.8152 16.6492 26.5733 16.8141 26.3754 17.001C26.1775 17.1989 26.0126 17.4408 25.8917 17.7047C25.7817 17.9686 25.7268 18.2654 25.7268 18.5733C25.7268 18.8811 25.7817 19.1779 25.8917 19.4418C26.0126 19.7167 26.1775 19.9476 26.3754 20.1455C26.5733 20.3434 26.8152 20.4973 27.0791 20.6182C27.3539 20.7392 27.6398 20.7941 27.9476 20.7941C28.1785 20.7941 28.4094 20.7611 28.6403 20.7062C28.8601 20.6402 29.08 20.5413 29.2669 20.4093C29.4648 20.2774 29.6407 20.0905 29.7837 19.8816C29.9266 19.6727 30.0475 19.4308 30.1355 19.134H29.168C29.069 19.3649 28.9151 19.5518 28.7172 19.6947C28.5083 19.8376 28.2555 19.9146 27.9476 19.9146C27.7717 19.9146 27.6068 19.8816 27.4419 19.8156C27.288 19.7497 27.145 19.6617 27.0241 19.5408C26.9032 19.4308 26.8042 19.2879 26.7272 19.134C26.6503 18.98 26.6063 18.8151 26.6063 18.6392V18.5952H30.1795C30.1685 18.3094 30.1135 18.0345 30.0036 17.7707ZM26.7712 17.8366L26.8042 17.7817C27.0241 17.4298 27.4089 17.2429 27.9586 17.2209C28.4973 17.2209 28.8711 17.4188 29.091 17.7817L29.124 17.8366H26.7712Z" fill="white"/>
<path d="M52.6959 11.8116C52.553 11.8116 52.4321 11.8006 52.3551 11.7677C52.2782 11.7457 52.2232 11.7127 52.1792 11.6577C52.1352 11.6027 52.1132 11.5368 52.1022 11.4488C52.0912 11.3499 52.0803 11.2399 52.0803 11.13V9.74469H52.7179V8.79918H52.0803V6.67726H51.0908V8.81017H50.574V9.75569H51.0908V11.3279C51.0908 11.5588 51.1237 11.7567 51.1677 11.9326C51.2227 12.1195 51.2997 12.2624 51.4206 12.3943C51.5415 12.5153 51.6845 12.6142 51.8824 12.6802C52.0693 12.7462 52.2891 12.7791 52.553 12.7791H52.7839V11.8116H52.6959ZM29.5528 8.90912C29.3439 8.70023 29.102 8.53531 28.8272 8.41437C28.5523 8.29343 28.2554 8.23846 27.9366 8.23846C27.6178 8.23846 27.3209 8.29343 27.0461 8.41437C26.7712 8.53531 26.5293 8.70023 26.3204 8.90912C26.1115 9.10702 25.9466 9.35989 25.8257 9.63475C25.7047 9.90961 25.6388 10.2065 25.6388 10.5253C25.6388 10.8441 25.7047 11.141 25.8257 11.4048C26.0639 11.951 26.4999 12.387 27.0461 12.6252C27.3209 12.7462 27.6178 12.8011 27.9366 12.8011C28.2554 12.8011 28.5523 12.7462 28.8272 12.6252C29.102 12.5043 29.3549 12.3394 29.5528 12.1305C29.7617 11.9216 29.9266 11.6797 30.0475 11.4048C30.1685 11.13 30.2234 10.8331 30.2234 10.5253C30.2234 10.2065 30.1575 9.90961 30.0475 9.63475C29.9156 9.35989 29.7507 9.10702 29.5528 8.90912ZM27.9366 11.7567C27.7607 11.7567 27.5958 11.7237 27.4529 11.6577C27.3099 11.5917 27.167 11.5038 27.0571 11.3938C26.9471 11.2839 26.8592 11.152 26.7932 10.9981C26.7272 10.8441 26.6942 10.6792 26.6942 10.5143C26.6942 10.3494 26.7272 10.1845 26.7932 10.0305C26.8592 9.87662 26.9471 9.74469 27.0571 9.63475C27.178 9.5248 27.2989 9.43685 27.4529 9.37088C27.5958 9.30492 27.7607 9.27193 27.9366 9.27193C28.1125 9.27193 28.2664 9.30492 28.4204 9.37088C28.5743 9.43685 28.7062 9.5248 28.8162 9.63475C28.9371 9.74469 29.025 9.87662 29.08 10.0305C29.146 10.1845 29.179 10.3494 29.179 10.5143C29.179 10.6902 29.146 10.8441 29.08 10.9981C29.0141 11.152 28.9261 11.2839 28.8162 11.3938C28.7062 11.5148 28.5743 11.5917 28.4204 11.6577C28.2664 11.7347 28.1015 11.7567 27.9366 11.7567ZM21.351 8.7442C21.285 8.67824 21.1971 8.62327 21.0981 8.56829C20.9992 8.51332 20.8892 8.45835 20.7793 8.41437C20.6583 8.37039 20.5374 8.32642 20.4274 8.30443C20.3065 8.27144 20.1856 8.26045 20.0536 8.26045C19.7348 8.26045 19.438 8.31542 19.1631 8.43636C18.8882 8.5573 18.6464 8.72221 18.4485 8.92011C18.2506 9.11801 18.0856 9.35989 17.9647 9.63475C17.8438 9.90961 17.7888 10.2065 17.7888 10.5143C17.7888 10.8331 17.8438 11.13 17.9647 11.4048C18.0856 11.6797 18.2506 11.9216 18.4485 12.1195C18.6464 12.3174 18.8882 12.4823 19.1631 12.6032C19.438 12.7242 19.7348 12.7791 20.0536 12.7791C20.3725 12.7791 20.6693 12.7242 20.9442 12.6032C21.219 12.4823 21.4609 12.3284 21.6588 12.1305C21.8677 11.9216 22.0326 11.6797 22.1426 11.4048C22.2635 11.13 22.3185 10.8331 22.3185 10.5033V6.32544H21.34V8.7442H21.351ZM19.5589 11.7237C19.394 11.6577 19.262 11.5588 19.1521 11.4488C19.0312 11.3279 18.9432 11.196 18.8662 11.031C18.8003 10.8771 18.7673 10.7012 18.7673 10.5253C18.7673 10.3494 18.8003 10.1845 18.8662 10.0305C18.9432 9.86563 19.0312 9.7337 19.1521 9.61276C19.273 9.49182 19.405 9.40387 19.5699 9.3379C19.7238 9.27193 19.8997 9.23895 20.0646 9.23895C20.2405 9.23895 20.4165 9.27193 20.5704 9.3379C20.7243 9.40387 20.8562 9.50282 20.9772 9.61276C21.0981 9.7337 21.1861 9.86563 21.263 10.0305C21.329 10.1845 21.362 10.3604 21.362 10.5253C21.362 10.7012 21.329 10.8771 21.263 11.031C21.1971 11.185 21.0981 11.3169 20.9772 11.4488C20.8562 11.5698 20.7243 11.6577 20.5594 11.7237C20.2515 11.8666 19.8667 11.8666 19.5589 11.7237ZM45.8025 9.62375C45.7475 9.50282 45.6815 9.35989 45.5936 9.22796C45.5166 9.10702 45.4287 8.99707 45.3187 8.89812C45.2857 8.86514 45.2637 8.84315 45.2308 8.82116L45.1868 8.77719C45.1758 8.76619 45.1648 8.76619 45.1648 8.7552C45.1428 8.73321 45.1208 8.72221 45.0988 8.70023L45.0768 8.67824C45.0658 8.67824 45.0548 8.66724 45.0329 8.65625L45.0219 8.64525C45.0109 8.63426 44.9999 8.62327 44.9889 8.62327C44.9779 8.61227 44.9669 8.60128 44.9449 8.59028C44.9339 8.59028 44.9339 8.57929 44.9229 8.56829C44.8789 8.5463 44.846 8.51332 44.791 8.49133L44.769 8.48034C44.714 8.45835 44.6591 8.42537 44.6041 8.40338C44.3292 8.28244 44.0324 8.22747 43.7025 8.22747C43.3837 8.22747 43.0869 8.28244 42.812 8.40338C42.768 8.42537 42.724 8.44736 42.6801 8.45835L42.6141 8.49133C42.5701 8.51332 42.5371 8.5463 42.4932 8.56829L42.4712 8.57929C42.4492 8.59028 42.4382 8.60128 42.4272 8.61227C42.4052 8.62327 42.3832 8.63426 42.3722 8.65625L42.3172 8.68923C42.2953 8.71122 42.2733 8.72221 42.2513 8.7442C42.2403 8.7442 42.2403 8.7552 42.2293 8.76619L42.2073 8.78818C42.1743 8.82116 42.1303 8.85415 42.0974 8.88713C42.0314 8.9531 41.9654 9.03006 41.8885 9.12901L41.8775 9.15099C41.8775 9.16199 41.8665 9.17298 41.8555 9.18398C41.8445 9.19497 41.8335 9.21696 41.8225 9.22796C41.7785 9.28293 41.7455 9.34889 41.7016 9.43685L41.6906 9.44784C41.6576 9.51381 41.6246 9.56878 41.6026 9.63475V9.65674C41.6026 9.65674 41.5916 9.66773 41.5916 9.67873C41.5696 9.7227 41.5586 9.75569 41.5476 9.79966L41.5366 9.82165C41.5257 9.84364 41.5257 9.85464 41.5147 9.86563C41.5147 9.88762 41.5037 9.89861 41.5037 9.9206C41.4927 9.94259 41.4927 9.96458 41.4817 9.98657C41.4597 10.0855 41.4377 10.1845 41.4267 10.2834L41.4157 10.3274H41.4267V10.8002C41.4487 11.02 41.5037 11.2289 41.5806 11.4158C41.7016 11.6907 41.8665 11.9326 42.0754 12.1415C42.1633 12.2294 42.2513 12.3064 42.3282 12.3614C42.4822 12.4713 42.6361 12.5702 42.79 12.6362C43.0649 12.7572 43.3617 12.8121 43.6805 12.8121C43.8125 12.8121 43.9334 12.7901 44.0544 12.7681C44.1753 12.7352 44.3072 12.7022 44.4282 12.6472C44.5491 12.5922 44.659 12.5263 44.758 12.4493C44.824 12.4053 44.8789 12.3504 44.9339 12.2954V12.7132H45.9564V10.2724C45.9454 10.0525 45.8904 9.83265 45.8025 9.62375ZM44.9559 10.5253C44.9559 10.7342 44.9229 10.9101 44.8569 11.064C44.791 11.2179 44.692 11.3499 44.5821 11.4488C44.4612 11.5588 44.3292 11.6357 44.1863 11.6797C44.0324 11.7237 43.8675 11.7567 43.7025 11.7567C43.5266 11.7567 43.3727 11.7237 43.2188 11.6577C43.0759 11.5917 42.9329 11.5038 42.823 11.3938C42.713 11.2839 42.6251 11.152 42.5591 10.9981C42.4932 10.8551 42.4602 10.6902 42.4602 10.5143C42.4602 10.3384 42.4932 10.1735 42.5591 10.0305C42.6361 9.86563 42.713 9.74469 42.823 9.63475C42.9329 9.5248 43.0649 9.42585 43.2188 9.37088C43.3727 9.30492 43.5266 9.27193 43.7025 9.27193C43.8784 9.27193 44.0324 9.30492 44.1863 9.34889C44.3402 9.40387 44.4721 9.48083 44.5821 9.59077C44.692 9.68972 44.78 9.82165 44.846 9.97557C44.9229 10.1405 44.9559 10.3274 44.9559 10.5253ZM3.81494 8.44736H4.80444V12.8011H3.81494V8.44736ZM37.2269 10.5913C37.0949 10.4813 36.93 10.3824 36.7321 10.2944C36.5452 10.2065 36.3363 10.1295 36.1164 10.0525C36.0175 10.0086 35.9185 9.98657 35.8306 9.95358L35.7316 9.9206C35.6217 9.88762 35.5337 9.85464 35.4568 9.82165C35.3908 9.78867 35.3358 9.75569 35.3028 9.70071C35.2699 9.65674 35.2479 9.61276 35.2479 9.54679V9.5248C35.2479 9.49182 35.2589 9.46983 35.2699 9.43685C35.2808 9.41486 35.3028 9.38188 35.3358 9.37088C35.3798 9.34889 35.4348 9.3269 35.5007 9.31591C35.5777 9.29392 35.6766 9.29392 35.7976 9.29392C36.0285 9.29392 36.2264 9.31591 36.4133 9.35989C36.5892 9.40387 36.7871 9.48083 36.985 9.57978L37.0289 9.60176L37.4797 8.72221L37.4357 8.70023C37.1719 8.56829 36.897 8.48034 36.6112 8.41437C36.3253 8.34841 36.0724 8.31542 35.8416 8.31542H35.8306C35.6107 8.31542 35.4018 8.34841 35.1929 8.40338C34.984 8.45835 34.7971 8.5463 34.6432 8.65625C34.4783 8.76619 34.3463 8.89812 34.2474 9.06304C34.1484 9.21696 34.0935 9.40387 34.0935 9.59077V9.61276C34.0935 9.82165 34.1374 9.99756 34.2254 10.1405C34.3133 10.2834 34.4233 10.4153 34.5662 10.5143C34.7091 10.6132 34.8741 10.7012 35.072 10.7782C35.2589 10.8441 35.4678 10.9101 35.6876 10.9761C35.9625 11.053 36.1824 11.141 36.3473 11.2289C36.4902 11.3169 36.5672 11.4158 36.5672 11.5588V11.5808C36.5672 11.6687 36.5232 11.7457 36.4133 11.7896C36.2923 11.8446 36.1274 11.8666 35.9295 11.8666C35.7976 11.8666 35.6656 11.8556 35.5447 11.8446C35.4348 11.8336 35.3358 11.8116 35.2259 11.7787C35.1159 11.7457 35.017 11.7017 34.918 11.6577C34.8191 11.6137 34.7091 11.5478 34.5882 11.4818L34.5552 11.4598L33.9725 12.3064L34.0055 12.3284C34.1484 12.4163 34.3023 12.4933 34.4673 12.5593C34.6322 12.6252 34.7971 12.6802 34.962 12.7242C35.1269 12.7681 35.2918 12.8011 35.4568 12.8231C35.6217 12.8451 35.7646 12.8561 35.8965 12.8561C36.1164 12.8561 36.3363 12.8231 36.5452 12.7681C36.7541 12.7132 36.952 12.6252 37.1169 12.5043C37.2928 12.3833 37.4248 12.2514 37.5347 12.0755C37.6446 11.9106 37.6996 11.7127 37.6996 11.5038V11.4818C37.6996 11.2839 37.6556 11.108 37.5897 10.9541C37.4687 10.8331 37.3588 10.7012 37.2269 10.5913ZM14.4685 12.8121H13.49V10.5803C13.479 10.4263 13.446 10.2724 13.391 10.1405C13.3251 9.98657 13.2261 9.84364 13.1162 9.7337C12.9952 9.61276 12.8633 9.5248 12.7094 9.44784C12.5555 9.38188 12.3906 9.34889 12.2037 9.34889C12.0277 9.34889 11.8628 9.38188 11.7089 9.44784C11.555 9.51381 11.4121 9.61276 11.3021 9.7337C11.1812 9.85464 11.0932 9.98657 11.0273 10.1405C10.9613 10.2834 10.9283 10.4373 10.9173 10.5803V12.8121H9.93881V10.4153C9.97179 10.1845 10.0158 9.96458 10.1147 9.75569C10.1697 9.62375 10.2467 9.49182 10.3236 9.35989C10.4006 9.23895 10.4995 9.12901 10.5985 9.03006L10.6864 8.9421L10.7084 8.92011L10.7414 8.88713L10.7854 8.84315C10.8074 8.83216 10.8184 8.82116 10.8403 8.81017C10.8623 8.78818 10.8953 8.76619 10.9173 8.7442C10.9393 8.73321 10.9613 8.72221 10.9833 8.70023L11.0053 8.68923C11.0382 8.66724 11.0712 8.64525 11.1152 8.63426L11.1262 8.62327C11.1922 8.59028 11.2471 8.5573 11.3021 8.53531C11.577 8.41437 11.8738 8.3594 12.1927 8.3594H12.2037C12.5225 8.3594 12.8193 8.41437 13.0942 8.53531C13.1602 8.5573 13.2151 8.59028 13.2591 8.62327C13.2591 8.62327 13.2701 8.62326 13.2701 8.63426C13.3141 8.65625 13.3471 8.67824 13.38 8.70023L13.402 8.71122C13.424 8.72221 13.446 8.73321 13.468 8.7552L13.479 8.76619C13.501 8.78818 13.534 8.79917 13.556 8.82116C13.567 8.83216 13.5889 8.84315 13.5999 8.85415C13.6219 8.86514 13.6329 8.87614 13.6549 8.88713L13.6989 8.92011C13.7319 8.9531 13.7758 8.98608 13.8198 9.03006C13.9298 9.12901 14.0177 9.23895 14.1057 9.35989C14.1826 9.48083 14.2596 9.61276 14.3146 9.75569C14.4025 9.95358 14.4575 10.1735 14.4795 10.4044V10.4483L14.4685 12.8121Z" fill="#231F20"/>
</g>
<defs>
<clipPath id="clip0_172_592">
<rect width="55.9284" height="30" fill="white"/>
</clipPath>
</defs>
</svg>
