<svg xmlns="http://www.w3.org/2000/svg" width="261" height="261" fill="none" viewBox="0 0 261 261"><circle cx="130.5" cy="130.5" r="130" fill="#fff" stroke="#000"/><g filter="url(#filter0_d_1063_494)"><mask id="path-2-outside-1_1063_494" width="102" height="147" x="81" y="54" fill="#000" maskUnits="userSpaceOnUse"><rect width="102" height="147" x="81" y="54" fill="#fff"/><path d="M118.6 200H116.2C110.867 200 106.4 199.6 102.8 198.8C99.3333 198 96.2667 196.4 93.6 194C91.0667 191.467 89.0667 188.667 87.6 185.6C86.2667 182.533 85.2 177.933 84.4 171.8C83.2 162.6 82.6 150.267 82.6 134.8C82.6 119.2 82.6667 108.2 82.8 101.8C83.0667 95.4 83.6 89.2 84.4 83.2C85.2 77.0667 86.2667 72.5333 87.6 69.6C89.0667 66.5333 91.0667 63.8 93.6 61.4C96.2667 58.8667 99.3333 57.2667 102.8 56.6C106.4 55.8 110.867 55.4 116.2 55.4H118.6V200ZM126.6 55.4H152C161.733 55.4 169.067 57.0667 174 60.4C179.067 63.7333 181.6 69.5333 181.6 77.8V95.8C181.6 98.6 180.667 100 178.8 100H153.6C151.733 100 150.6 99.7333 150.2 99.2C149.8 98.6667 149.6 97.5333 149.6 95.8V80.2C149.6 78.0667 149.267 76.6 148.6 75.8C148.067 74.8667 146.6 74.4 144.2 74.4H126.6V55.4ZM153.6 155.4H178.8C180.667 155.4 181.6 156.8 181.6 159.6V177.6C181.6 185.867 179.067 191.667 174 195C169.067 198.333 161.733 200 152 200H126.6V181H144.2C146.6 181 148.067 180.6 148.6 179.8C149.267 178.867 149.6 177.333 149.6 175.2V159.6C149.6 157.867 149.8 156.733 150.2 156.2C150.6 155.667 151.733 155.4 153.6 155.4Z"/></mask><path fill="#3197DD" d="M118.6 200H116.2C110.867 200 106.4 199.6 102.8 198.8C99.3333 198 96.2667 196.4 93.6 194C91.0667 191.467 89.0667 188.667 87.6 185.6C86.2667 182.533 85.2 177.933 84.4 171.8C83.2 162.6 82.6 150.267 82.6 134.8C82.6 119.2 82.6667 108.2 82.8 101.8C83.0667 95.4 83.6 89.2 84.4 83.2C85.2 77.0667 86.2667 72.5333 87.6 69.6C89.0667 66.5333 91.0667 63.8 93.6 61.4C96.2667 58.8667 99.3333 57.2667 102.8 56.6C106.4 55.8 110.867 55.4 116.2 55.4H118.6V200ZM126.6 55.4H152C161.733 55.4 169.067 57.0667 174 60.4C179.067 63.7333 181.6 69.5333 181.6 77.8V95.8C181.6 98.6 180.667 100 178.8 100H153.6C151.733 100 150.6 99.7333 150.2 99.2C149.8 98.6667 149.6 97.5333 149.6 95.8V80.2C149.6 78.0667 149.267 76.6 148.6 75.8C148.067 74.8667 146.6 74.4 144.2 74.4H126.6V55.4ZM153.6 155.4H178.8C180.667 155.4 181.6 156.8 181.6 159.6V177.6C181.6 185.867 179.067 191.667 174 195C169.067 198.333 161.733 200 152 200H126.6V181H144.2C146.6 181 148.067 180.6 148.6 179.8C149.267 178.867 149.6 177.333 149.6 175.2V159.6C149.6 157.867 149.8 156.733 150.2 156.2C150.6 155.667 151.733 155.4 153.6 155.4Z"/><path fill="#000" d="M118.6 200V201H119.6V200H118.6ZM102.8 198.8L102.575 199.774L102.583 199.776L102.8 198.8ZM93.6 194L92.8929 194.707L92.9115 194.726L92.931 194.743L93.6 194ZM87.6 185.6L86.6829 185.999L86.6901 186.015L86.6979 186.031L87.6 185.6ZM84.4 171.8L85.3916 171.671L85.3916 171.671L84.4 171.8ZM82.8 101.8L81.8009 101.758L81.8004 101.769L81.8002 101.779L82.8 101.8ZM84.4 83.2L85.3912 83.3322L85.3916 83.3293L84.4 83.2ZM87.6 69.6L86.6979 69.1685L86.6937 69.1773L86.6896 69.1862L87.6 69.6ZM93.6 61.4L94.2877 62.1259L94.2888 62.125L93.6 61.4ZM102.8 56.6L102.989 57.582L103.003 57.5793L103.017 57.5762L102.8 56.6ZM118.6 55.4H119.6V54.4H118.6V55.4ZM126.6 55.4V54.4H125.6V55.4H126.6ZM174 60.4L173.44 61.2286L173.45 61.2354L174 60.4ZM148.6 75.8L147.732 76.2961L147.775 76.3726L147.832 76.4402L148.6 75.8ZM126.6 74.4H125.6V75.4H126.6V74.4ZM174 195L173.45 194.165L173.44 194.171L174 195ZM126.6 200H125.6V201H126.6V200ZM126.6 181V180H125.6V181H126.6ZM148.6 179.8L147.786 179.219L147.777 179.232L147.768 179.245L148.6 179.8ZM150.2 156.2L149.4 155.6L149.4 155.6L150.2 156.2ZM118.6 199H116.2V201H118.6V199ZM116.2 199C110.91 199 106.522 198.603 103.017 197.824L102.583 199.776C106.278 200.597 110.823 201 116.2 201V199ZM103.025 197.826C99.7249 197.064 96.8107 195.544 94.269 193.257L92.931 194.743C95.7226 197.256 98.9418 198.936 102.575 199.774L103.025 197.826ZM94.3071 193.293C91.8496 190.835 89.9173 188.128 88.5021 185.169L86.6979 186.031C88.216 189.206 90.2838 192.098 92.8929 194.707L94.3071 193.293ZM88.5171 185.201C87.2403 182.265 86.1879 177.776 85.3916 171.671L83.4084 171.929C84.2121 178.091 85.2931 182.802 86.6829 185.999L88.5171 185.201ZM85.3916 171.671C84.1997 162.532 83.6 150.248 83.6 134.8H81.6C81.6 150.286 82.2004 162.668 83.4084 171.929L85.3916 171.671ZM83.6 134.8C83.6 119.2 83.6667 108.209 83.7998 101.821L81.8002 101.779C81.6666 108.191 81.6 119.2 81.6 134.8H83.6ZM83.7991 101.842C84.0646 95.4702 84.5955 89.3004 85.3912 83.3322L83.4088 83.0678C82.6045 89.0995 82.0687 95.3298 81.8009 101.758L83.7991 101.842ZM85.3916 83.3293C86.1883 77.2215 87.2402 72.8082 88.5104 70.0138L86.6896 69.1862C85.2931 72.2585 84.2117 76.9118 83.4084 83.0707L85.3916 83.3293ZM88.5021 70.0315C89.9146 67.0782 91.8409 64.444 94.2877 62.1259L92.9123 60.674C90.2924 63.156 88.2188 65.9885 86.6979 69.1685L88.5021 70.0315ZM94.2888 62.125C96.8229 59.7176 99.7181 58.211 102.989 57.582L102.611 55.618C98.9486 56.3223 95.7104 58.0158 92.9113 60.675L94.2888 62.125ZM103.017 57.5762C106.522 56.7973 110.91 56.4 116.2 56.4V54.4C110.823 54.4 106.278 54.8027 102.583 55.6238L103.017 57.5762ZM116.2 56.4H118.6V54.4H116.2V56.4ZM117.6 55.4V200H119.6V55.4H117.6ZM126.6 56.4H152V54.4H126.6V56.4ZM152 56.4C161.649 56.4 168.747 58.0575 173.44 61.2286L174.56 59.5714C169.386 56.0758 161.818 54.4 152 54.4V56.4ZM173.45 61.2354C178.139 64.3203 180.6 69.7352 180.6 77.8H182.6C182.6 69.3314 179.994 63.1463 174.55 59.5646L173.45 61.2354ZM180.6 77.8V95.8H182.6V77.8H180.6ZM180.6 95.8C180.6 97.1205 180.374 97.9359 180.068 98.3953C179.809 98.7831 179.442 99 178.8 99V101C180.025 101 181.057 100.517 181.732 99.5047C182.359 98.564 182.6 97.2795 182.6 95.8H180.6ZM178.8 99H153.6V101H178.8V99ZM153.6 99C152.704 99 152.04 98.9349 151.579 98.8266C151.087 98.7107 150.987 98.5828 151 98.6L149.4 99.8C149.813 100.35 150.48 100.623 151.121 100.773C151.794 100.932 152.63 101 153.6 101V99ZM151 98.6C150.939 98.5193 150.825 98.2854 150.735 97.7762C150.649 97.2879 150.6 96.6345 150.6 95.8H148.6C148.6 96.6989 148.651 97.4788 148.765 98.1238C148.875 98.7479 149.061 99.3474 149.4 99.8L151 98.6ZM150.6 95.8V80.2H148.6V95.8H150.6ZM150.6 80.2C150.6 78.038 150.278 76.2511 149.368 75.1598L147.832 76.4402C148.256 76.9489 148.6 78.0953 148.6 80.2H150.6ZM149.468 75.3039C149.032 74.5412 148.273 74.0738 147.403 73.7971C146.533 73.5202 145.452 73.4 144.2 73.4V75.4C145.348 75.4 146.2 75.5131 146.797 75.7029C147.394 75.8929 147.634 76.1254 147.732 76.2961L149.468 75.3039ZM144.2 73.4H126.6V75.4H144.2V73.4ZM127.6 74.4V55.4H125.6V74.4H127.6ZM153.6 156.4H178.8V154.4H153.6V156.4ZM178.8 156.4C179.442 156.4 179.809 156.617 180.068 157.005C180.374 157.464 180.6 158.28 180.6 159.6H182.6C182.6 158.12 182.359 156.836 181.732 155.895C181.057 154.883 180.025 154.4 178.8 154.4V156.4ZM180.6 159.6V177.6H182.6V159.6H180.6ZM180.6 177.6C180.6 185.665 178.139 191.08 173.45 194.165L174.55 195.835C179.994 192.254 182.6 186.069 182.6 177.6H180.6ZM173.44 194.171C168.747 197.343 161.649 199 152 199V201C161.818 201 169.386 199.324 174.56 195.829L173.44 194.171ZM152 199H126.6V201H152V199ZM127.6 200V181H125.6V200H127.6ZM126.6 182H144.2V180H126.6V182ZM144.2 182C145.444 182 146.509 181.898 147.363 181.665C148.201 181.436 148.973 181.044 149.432 180.355L147.768 179.245C147.694 179.356 147.466 179.564 146.837 179.735C146.224 179.902 145.356 180 144.2 180V182ZM149.414 180.381C150.268 179.185 150.6 177.387 150.6 175.2H148.6C148.6 177.279 148.265 178.548 147.786 179.219L149.414 180.381ZM150.6 175.2V159.6H148.6V175.2H150.6ZM150.6 159.6C150.6 158.766 150.649 158.112 150.735 157.624C150.825 157.115 150.939 156.881 151 156.8L149.4 155.6C149.061 156.053 148.875 156.652 148.765 157.276C148.651 157.921 148.6 158.701 148.6 159.6H150.6ZM151 156.8C150.987 156.817 151.087 156.689 151.579 156.573C152.04 156.465 152.704 156.4 153.6 156.4V154.4C152.63 154.4 151.794 154.468 151.121 154.627C150.48 154.777 149.813 155.05 149.4 155.6L151 156.8Z" mask="url(#path-2-outside-1_1063_494)"/></g><path stroke="#000" d="M82.5 146.5H119"/><rect width="228" height="31" x="23" y="115" fill="#fff"/><g filter="url(#filter1_d_1063_494)"><mask id="path-6-outside-2_1063_494" width="103" height="26" x="83" y="117" fill="#000" maskUnits="userSpaceOnUse"><rect width="103" height="26" x="83" y="117" fill="#fff"/><path d="M93.72 118.856C95.448 118.856 96.888 119.251 98.04 120.04C99.2133 120.808 99.8 121.789 99.8 122.984C99.8 124.179 99.128 124.787 97.784 124.808C97.784 123.464 97.4 122.429 96.632 121.704C95.864 120.957 94.808 120.584 93.464 120.584C91.2667 120.584 89.592 121.469 88.44 123.24C87.288 125.011 86.712 127.357 86.712 130.28C86.712 136.445 89.0907 139.528 93.848 139.528C96.0667 139.528 97.9867 138.877 99.608 137.576C99.8853 137.725 100.024 137.96 100.024 138.28C100.024 138.941 99.3733 139.645 98.072 140.392C96.7707 141.117 95.1813 141.48 93.304 141.48C90.424 141.48 88.2053 140.541 86.648 138.664C85.112 136.765 84.3013 134.12 84.216 130.728C84.152 127.315 84.9627 124.488 86.648 122.248C88.3547 119.987 90.712 118.856 93.72 118.856ZM116.363 140.008C116.363 141.011 115.702 141.512 114.379 141.512C113.056 141.512 112.288 140.84 112.075 139.496C110.71 140.819 109.067 141.48 107.147 141.48C105.675 141.48 104.502 141.107 103.627 140.36C102.774 139.592 102.347 138.557 102.347 137.256C102.347 135.955 102.827 134.856 103.787 133.96C104.747 133.064 106.336 132.616 108.555 132.616C109.856 132.616 111.008 132.765 112.011 133.064V130.536C112.011 129.32 111.702 128.349 111.083 127.624C110.486 126.877 109.6 126.504 108.427 126.504C107.254 126.504 106.411 126.824 105.899 127.464C105.408 128.083 105.131 128.808 105.067 129.64C104.555 129.683 104.128 129.576 103.787 129.32C103.446 129.064 103.275 128.648 103.275 128.072C103.275 127.155 103.744 126.397 104.683 125.8C105.622 125.181 106.838 124.872 108.331 124.872C109.632 124.872 110.87 125.192 112.043 125.832C112.704 126.173 113.238 126.739 113.643 127.528C114.048 128.317 114.251 129.277 114.251 130.408V139.752L116.363 140.008ZM112.011 134.984C111.03 134.451 109.888 134.184 108.587 134.184C107.286 134.184 106.326 134.429 105.707 134.92C105.11 135.411 104.811 136.083 104.811 136.936C104.811 137.789 105.078 138.472 105.611 138.984C106.144 139.475 106.88 139.72 107.819 139.72C109.312 139.72 110.71 139.144 112.011 137.992V134.984ZM118.25 129.352C118.271 127.965 118.836 126.867 119.946 126.056C121.055 125.245 122.26 124.851 123.562 124.872C124.884 124.893 125.972 125.128 126.826 125.576C127.679 126.003 128.095 126.643 128.074 127.496C128.052 128.072 127.85 128.488 127.466 128.744C127.082 129 126.666 129.107 126.218 129.064C126.239 128.317 126.004 127.709 125.514 127.24C125.044 126.771 124.351 126.525 123.434 126.504C122.516 126.483 121.748 126.696 121.13 127.144C120.532 127.571 120.223 128.125 120.202 128.808C120.18 129.491 120.479 130.045 121.098 130.472C121.738 130.877 122.634 131.304 123.786 131.752C124.938 132.2 125.716 132.531 126.122 132.744C126.548 132.936 127.007 133.203 127.498 133.544C128.415 134.184 128.852 135.155 128.81 136.456C128.788 137.757 128.223 138.931 127.114 139.976C126.004 141 124.522 141.501 122.666 141.48C121.343 141.437 120.18 141.16 119.178 140.648C118.175 140.115 117.674 139.389 117.674 138.472C117.695 137.981 117.855 137.597 118.154 137.32C118.474 137.021 118.858 136.883 119.306 136.904C119.476 137.779 119.903 138.483 120.586 139.016C121.29 139.549 122.154 139.827 123.178 139.848C124.202 139.848 125.055 139.613 125.738 139.144C126.42 138.653 126.772 138.013 126.794 137.224C126.815 136.435 126.57 135.837 126.058 135.432C125.567 135.027 124.852 134.653 123.914 134.312C122.975 133.949 122.314 133.693 121.93 133.544C121.567 133.395 121.108 133.171 120.554 132.872C120.02 132.573 119.604 132.275 119.306 131.976C118.602 131.229 118.25 130.355 118.25 129.352ZM147.707 141H141.627V140.744C141.627 140.061 141.968 139.688 142.651 139.624L143.963 139.56V131.528C143.963 129.971 143.632 128.808 142.971 128.04C142.309 127.251 141.445 126.856 140.379 126.856C139.333 126.856 138.469 127.027 137.786 127.368C137.125 127.709 136.411 128.221 135.643 128.904V139.496L138.075 139.688C138.16 140.563 137.861 141 137.179 141H131.099V140.744C131.099 140.232 131.248 139.912 131.547 139.784C131.696 139.699 131.877 139.645 132.091 139.624L133.435 139.56V120.808L131.771 120.648C131.259 120.584 131.003 120.125 131.003 119.272L135.643 118.664V127.144C137.115 125.629 138.789 124.872 140.667 124.872C142.16 124.872 143.44 125.395 144.507 126.44C145.573 127.464 146.117 129.096 146.139 131.336L146.171 139.496L148.571 139.688C148.656 140.563 148.368 141 147.707 141ZM160.383 125.352H165.407V125.576C165.407 126.088 165.258 126.408 164.959 126.536C164.81 126.621 164.319 126.707 163.487 126.792L158.911 131.816L164.511 139.496L166.655 139.688C166.74 140.563 166.431 141 165.727 141H163.103L157.503 133.352L155.455 135.592V139.496L157.887 139.688C157.972 140.563 157.684 141 157.023 141H150.911V140.744C150.911 140.232 151.06 139.912 151.359 139.784C151.508 139.699 151.69 139.645 151.903 139.624L153.247 139.56V120.808L151.583 120.616C151.071 120.573 150.815 120.115 150.815 119.24L155.455 118.664V133.512L161.407 126.856L159.487 126.664C159.402 125.789 159.7 125.352 160.383 125.352ZM167.075 126.28C167.075 125.661 167.373 125.352 167.971 125.352H171.715V134.792C171.715 136.371 172.045 137.565 172.707 138.376C173.368 139.165 174.349 139.56 175.651 139.56C176.973 139.56 178.307 138.973 179.651 137.8V126.856L177.187 126.696C177.101 125.8 177.389 125.352 178.051 125.352H181.859V139.176L183.427 139.336C183.917 139.379 184.163 139.837 184.163 140.712L180.291 141.032L179.875 139.336C178.445 140.765 176.813 141.48 174.979 141.48C173.507 141.48 172.227 140.957 171.139 139.912C170.051 138.867 169.507 137.224 169.507 134.984V126.856L167.075 126.696V126.28Z"/></mask><path fill="#53C1F9" d="M93.72 118.856C95.448 118.856 96.888 119.251 98.04 120.04C99.2133 120.808 99.8 121.789 99.8 122.984C99.8 124.179 99.128 124.787 97.784 124.808C97.784 123.464 97.4 122.429 96.632 121.704C95.864 120.957 94.808 120.584 93.464 120.584C91.2667 120.584 89.592 121.469 88.44 123.24C87.288 125.011 86.712 127.357 86.712 130.28C86.712 136.445 89.0907 139.528 93.848 139.528C96.0667 139.528 97.9867 138.877 99.608 137.576C99.8853 137.725 100.024 137.96 100.024 138.28C100.024 138.941 99.3733 139.645 98.072 140.392C96.7707 141.117 95.1813 141.48 93.304 141.48C90.424 141.48 88.2053 140.541 86.648 138.664C85.112 136.765 84.3013 134.12 84.216 130.728C84.152 127.315 84.9627 124.488 86.648 122.248C88.3547 119.987 90.712 118.856 93.72 118.856ZM116.363 140.008C116.363 141.011 115.702 141.512 114.379 141.512C113.056 141.512 112.288 140.84 112.075 139.496C110.71 140.819 109.067 141.48 107.147 141.48C105.675 141.48 104.502 141.107 103.627 140.36C102.774 139.592 102.347 138.557 102.347 137.256C102.347 135.955 102.827 134.856 103.787 133.96C104.747 133.064 106.336 132.616 108.555 132.616C109.856 132.616 111.008 132.765 112.011 133.064V130.536C112.011 129.32 111.702 128.349 111.083 127.624C110.486 126.877 109.6 126.504 108.427 126.504C107.254 126.504 106.411 126.824 105.899 127.464C105.408 128.083 105.131 128.808 105.067 129.64C104.555 129.683 104.128 129.576 103.787 129.32C103.446 129.064 103.275 128.648 103.275 128.072C103.275 127.155 103.744 126.397 104.683 125.8C105.622 125.181 106.838 124.872 108.331 124.872C109.632 124.872 110.87 125.192 112.043 125.832C112.704 126.173 113.238 126.739 113.643 127.528C114.048 128.317 114.251 129.277 114.251 130.408V139.752L116.363 140.008ZM112.011 134.984C111.03 134.451 109.888 134.184 108.587 134.184C107.286 134.184 106.326 134.429 105.707 134.92C105.11 135.411 104.811 136.083 104.811 136.936C104.811 137.789 105.078 138.472 105.611 138.984C106.144 139.475 106.88 139.72 107.819 139.72C109.312 139.72 110.71 139.144 112.011 137.992V134.984ZM118.25 129.352C118.271 127.965 118.836 126.867 119.946 126.056C121.055 125.245 122.26 124.851 123.562 124.872C124.884 124.893 125.972 125.128 126.826 125.576C127.679 126.003 128.095 126.643 128.074 127.496C128.052 128.072 127.85 128.488 127.466 128.744C127.082 129 126.666 129.107 126.218 129.064C126.239 128.317 126.004 127.709 125.514 127.24C125.044 126.771 124.351 126.525 123.434 126.504C122.516 126.483 121.748 126.696 121.13 127.144C120.532 127.571 120.223 128.125 120.202 128.808C120.18 129.491 120.479 130.045 121.098 130.472C121.738 130.877 122.634 131.304 123.786 131.752C124.938 132.2 125.716 132.531 126.122 132.744C126.548 132.936 127.007 133.203 127.498 133.544C128.415 134.184 128.852 135.155 128.81 136.456C128.788 137.757 128.223 138.931 127.114 139.976C126.004 141 124.522 141.501 122.666 141.48C121.343 141.437 120.18 141.16 119.178 140.648C118.175 140.115 117.674 139.389 117.674 138.472C117.695 137.981 117.855 137.597 118.154 137.32C118.474 137.021 118.858 136.883 119.306 136.904C119.476 137.779 119.903 138.483 120.586 139.016C121.29 139.549 122.154 139.827 123.178 139.848C124.202 139.848 125.055 139.613 125.738 139.144C126.42 138.653 126.772 138.013 126.794 137.224C126.815 136.435 126.57 135.837 126.058 135.432C125.567 135.027 124.852 134.653 123.914 134.312C122.975 133.949 122.314 133.693 121.93 133.544C121.567 133.395 121.108 133.171 120.554 132.872C120.02 132.573 119.604 132.275 119.306 131.976C118.602 131.229 118.25 130.355 118.25 129.352ZM147.707 141H141.627V140.744C141.627 140.061 141.968 139.688 142.651 139.624L143.963 139.56V131.528C143.963 129.971 143.632 128.808 142.971 128.04C142.309 127.251 141.445 126.856 140.379 126.856C139.333 126.856 138.469 127.027 137.786 127.368C137.125 127.709 136.411 128.221 135.643 128.904V139.496L138.075 139.688C138.16 140.563 137.861 141 137.179 141H131.099V140.744C131.099 140.232 131.248 139.912 131.547 139.784C131.696 139.699 131.877 139.645 132.091 139.624L133.435 139.56V120.808L131.771 120.648C131.259 120.584 131.003 120.125 131.003 119.272L135.643 118.664V127.144C137.115 125.629 138.789 124.872 140.667 124.872C142.16 124.872 143.44 125.395 144.507 126.44C145.573 127.464 146.117 129.096 146.139 131.336L146.171 139.496L148.571 139.688C148.656 140.563 148.368 141 147.707 141ZM160.383 125.352H165.407V125.576C165.407 126.088 165.258 126.408 164.959 126.536C164.81 126.621 164.319 126.707 163.487 126.792L158.911 131.816L164.511 139.496L166.655 139.688C166.74 140.563 166.431 141 165.727 141H163.103L157.503 133.352L155.455 135.592V139.496L157.887 139.688C157.972 140.563 157.684 141 157.023 141H150.911V140.744C150.911 140.232 151.06 139.912 151.359 139.784C151.508 139.699 151.69 139.645 151.903 139.624L153.247 139.56V120.808L151.583 120.616C151.071 120.573 150.815 120.115 150.815 119.24L155.455 118.664V133.512L161.407 126.856L159.487 126.664C159.402 125.789 159.7 125.352 160.383 125.352ZM167.075 126.28C167.075 125.661 167.373 125.352 167.971 125.352H171.715V134.792C171.715 136.371 172.045 137.565 172.707 138.376C173.368 139.165 174.349 139.56 175.651 139.56C176.973 139.56 178.307 138.973 179.651 137.8V126.856L177.187 126.696C177.101 125.8 177.389 125.352 178.051 125.352H181.859V139.176L183.427 139.336C183.917 139.379 184.163 139.837 184.163 140.712L180.291 141.032L179.875 139.336C178.445 140.765 176.813 141.48 174.979 141.48C173.507 141.48 172.227 140.957 171.139 139.912C170.051 138.867 169.507 137.224 169.507 134.984V126.856L167.075 126.696V126.28Z"/><path fill="#000" d="M98.04 120.04L97.4748 120.865L97.4835 120.871L97.4923 120.877L98.04 120.04ZM97.784 124.808H96.784V125.824L97.7999 125.808L97.784 124.808ZM96.632 121.704L95.9349 122.421L95.9401 122.426L95.9454 122.431L96.632 121.704ZM88.44 123.24L89.2782 123.785L89.2782 123.785L88.44 123.24ZM99.608 137.576L100.082 136.696L99.4988 136.381L98.9821 136.796L99.608 137.576ZM98.072 140.392L98.5589 141.266L98.5697 141.259L98.072 140.392ZM86.648 138.664L85.8705 139.293L85.8783 139.302L86.648 138.664ZM84.216 130.728L83.2162 130.747L83.2163 130.753L84.216 130.728ZM86.648 122.248L85.8498 121.646L85.8489 121.647L86.648 122.248ZM93.72 119.856C95.2945 119.856 96.525 120.214 97.4748 120.865L98.6052 119.215C97.251 118.287 95.6015 117.856 93.72 117.856V119.856ZM97.4923 120.877C98.4404 121.497 98.8 122.19 98.8 122.984H100.8C100.8 121.389 99.9863 120.119 98.5877 119.203L97.4923 120.877ZM98.8 122.984C98.8 123.394 98.6903 123.535 98.6251 123.594C98.5385 123.673 98.3118 123.799 97.7681 123.808L97.7999 125.808C98.6002 125.795 99.3815 125.607 99.9669 125.078C100.574 124.529 100.8 123.769 100.8 122.984H98.8ZM98.784 124.808C98.784 123.268 98.3378 121.94 97.3186 120.977L95.9454 122.431C96.4622 122.919 96.784 123.66 96.784 124.808H98.784ZM97.3291 120.987C96.3298 120.015 94.9987 119.584 93.464 119.584V121.584C94.6173 121.584 95.3982 121.899 95.9349 122.421L97.3291 120.987ZM93.464 119.584C90.9447 119.584 88.947 120.627 87.6018 122.695L89.2782 123.785C90.237 122.312 91.5886 121.584 93.464 121.584V119.584ZM87.6018 122.695C86.3109 124.679 85.712 127.235 85.712 130.28H87.712C87.712 127.479 88.2651 125.343 89.2782 123.785L87.6018 122.695ZM85.712 130.28C85.712 133.463 86.3213 136.035 87.7043 137.827C89.1252 139.668 91.2358 140.528 93.848 140.528V138.528C91.7028 138.528 90.2454 137.846 89.2877 136.605C88.292 135.315 87.712 133.262 87.712 130.28H85.712ZM93.848 140.528C96.2779 140.528 98.4227 139.81 100.234 138.356L98.9821 136.796C97.5506 137.945 95.8555 138.528 93.848 138.528V140.528ZM99.1339 138.456C99.1375 138.458 99.0961 138.435 99.0591 138.373C99.0226 138.311 99.024 138.268 99.024 138.28H101.024C101.024 137.972 100.956 137.652 100.781 137.355C100.605 137.058 100.356 136.843 100.082 136.696L99.1339 138.456ZM99.024 138.28C99.024 138.28 99.024 138.281 99.0237 138.283C99.0235 138.286 99.0229 138.289 99.0216 138.295C99.0189 138.306 99.0129 138.325 98.9993 138.354C98.971 138.413 98.9134 138.504 98.8016 138.625C98.5726 138.873 98.1808 139.177 97.5743 139.525L98.5697 141.259C99.2646 140.861 99.8487 140.439 100.27 139.983C100.69 139.528 101.024 138.955 101.024 138.28H99.024ZM97.5851 139.519C96.4666 140.142 95.0545 140.48 93.304 140.48V142.48C95.3082 142.48 97.0748 142.093 98.5589 141.265L97.5851 139.519ZM93.304 140.48C90.6619 140.48 88.7499 139.632 87.4177 138.026L85.8783 139.302C87.6607 141.451 90.1861 142.48 93.304 142.48V140.48ZM87.4254 138.035C86.073 136.363 85.2976 133.959 85.2157 130.703L83.2163 130.753C83.3051 134.281 84.151 137.167 85.8706 139.293L87.4254 138.035ZM85.2158 130.709C85.1551 127.469 85.9233 124.875 87.4471 122.849L85.8489 121.647C84.002 124.101 83.1489 127.16 83.2162 130.747L85.2158 130.709ZM87.4462 122.85C88.9507 120.857 91.0031 119.856 93.72 119.856V117.856C90.4209 117.856 87.7586 119.116 85.8498 121.646L87.4462 122.85ZM116.363 140.008H117.363V139.122L116.483 139.015L116.363 140.008ZM112.075 139.496L113.063 139.339L112.761 137.439L111.379 138.778L112.075 139.496ZM103.627 140.36L102.958 141.103L102.968 141.112L102.978 141.121L103.627 140.36ZM112.011 133.064L111.726 134.022L113.011 134.405V133.064H112.011ZM111.083 127.624L110.302 128.249L110.312 128.261L110.322 128.273L111.083 127.624ZM105.899 127.464L105.118 126.839L105.116 126.843L105.899 127.464ZM105.067 129.64L105.15 130.637L105.999 130.566L106.064 129.717L105.067 129.64ZM104.683 125.8L105.22 126.644L105.227 126.639L105.233 126.635L104.683 125.8ZM112.043 125.832L111.564 126.71L111.574 126.715L111.584 126.721L112.043 125.832ZM113.643 127.528L114.533 127.071L114.533 127.071L113.643 127.528ZM114.251 139.752H113.251V140.638L114.131 140.745L114.251 139.752ZM112.011 134.984H113.011V134.389L112.489 134.105L112.011 134.984ZM105.707 134.92L105.086 134.137L105.079 134.142L105.072 134.147L105.707 134.92ZM105.611 138.984L104.918 139.705L104.926 139.713L104.934 139.72L105.611 138.984ZM112.011 137.992L112.674 138.741L113.011 138.442V137.992H112.011ZM115.363 140.008C115.363 140.269 115.291 140.318 115.263 140.339C115.182 140.4 114.942 140.512 114.379 140.512V142.512C115.138 142.512 115.89 142.373 116.471 141.933C117.104 141.453 117.363 140.749 117.363 140.008H115.363ZM114.379 140.512C113.887 140.512 113.623 140.389 113.47 140.255C113.313 140.118 113.145 139.858 113.063 139.339L111.087 139.653C111.218 140.478 111.541 141.226 112.152 141.761C112.767 142.299 113.549 142.512 114.379 142.512V140.512ZM111.379 138.778C110.202 139.918 108.81 140.48 107.147 140.48V142.48C109.324 142.48 111.217 141.72 112.771 140.214L111.379 138.778ZM107.147 140.48C105.845 140.48 104.924 140.152 104.276 139.599L102.978 141.121C104.079 142.061 105.505 142.48 107.147 142.48V140.48ZM104.296 139.617C103.683 139.065 103.347 138.316 103.347 137.256H101.347C101.347 138.799 101.865 140.119 102.958 141.103L104.296 139.617ZM103.347 137.256C103.347 136.235 103.71 135.4 104.469 134.691L103.105 133.229C101.944 134.312 101.347 135.675 101.347 137.256H103.347ZM104.469 134.691C105.152 134.054 106.427 133.616 108.555 133.616V131.616C106.246 131.616 104.342 132.074 103.105 133.229L104.469 134.691ZM108.555 133.616C109.782 133.616 110.835 133.757 111.726 134.022L112.296 132.106C111.182 131.774 109.931 131.616 108.555 131.616V133.616ZM113.011 133.064V130.536H111.011V133.064H113.011ZM113.011 130.536C113.011 129.149 112.655 127.927 111.844 126.975L110.322 128.273C110.748 128.772 111.011 129.491 111.011 130.536H113.011ZM111.864 126.999C111.034 125.962 109.828 125.504 108.427 125.504V127.504C109.373 127.504 109.937 127.793 110.302 128.249L111.864 126.999ZM108.427 125.504C107.087 125.504 105.891 125.873 105.118 126.839L106.68 128.089C106.931 127.775 107.421 127.504 108.427 127.504V125.504ZM105.116 126.843C104.494 127.627 104.148 128.544 104.07 129.563L106.064 129.717C106.114 129.072 106.323 128.539 106.682 128.085L105.116 126.843ZM104.984 128.643C104.664 128.67 104.494 128.6 104.387 128.52L103.187 130.12C103.763 130.552 104.446 130.695 105.15 130.637L104.984 128.643ZM104.387 128.52C104.379 128.514 104.275 128.452 104.275 128.072H102.275C102.275 128.844 102.512 129.614 103.187 130.12L104.387 128.52ZM104.275 128.072C104.275 127.573 104.499 127.103 105.22 126.644L104.146 124.956C102.99 125.692 102.275 126.736 102.275 128.072H104.275ZM105.233 126.635C105.963 126.154 106.97 125.872 108.331 125.872V123.872C106.705 123.872 105.28 124.209 104.133 124.965L105.233 126.635ZM108.331 125.872C109.46 125.872 110.534 126.148 111.564 126.71L112.522 124.954C111.206 124.236 109.804 123.872 108.331 123.872V125.872ZM111.584 126.721C112.027 126.949 112.425 127.344 112.753 127.985L114.533 127.071C114.051 126.133 113.381 125.397 112.502 124.943L111.584 126.721ZM112.753 127.985C113.069 128.599 113.251 129.394 113.251 130.408H115.251C115.251 129.161 115.028 128.035 114.533 127.071L112.753 127.985ZM113.251 130.408V139.752H115.251V130.408H113.251ZM114.131 140.745L116.243 141.001L116.483 139.015L114.371 138.759L114.131 140.745ZM112.489 134.105C111.338 133.48 110.027 133.184 108.587 133.184V135.184C109.749 135.184 110.721 135.421 111.533 135.863L112.489 134.105ZM108.587 133.184C107.195 133.184 105.964 133.44 105.086 134.137L106.328 135.703C106.688 135.418 107.377 135.184 108.587 135.184V133.184ZM105.072 134.147C104.218 134.849 103.811 135.819 103.811 136.936H105.811C105.811 136.347 106.002 135.972 106.342 135.693L105.072 134.147ZM103.811 136.936C103.811 138.016 104.158 138.975 104.918 139.705L106.304 138.263C105.997 137.969 105.811 137.563 105.811 136.936H103.811ZM104.934 139.72C105.701 140.426 106.706 140.72 107.819 140.72V138.72C107.055 138.72 106.587 138.523 106.288 138.248L104.934 139.72ZM107.819 140.72C109.596 140.72 111.221 140.026 112.674 138.741L111.348 137.243C110.198 138.262 109.029 138.72 107.819 138.72V140.72ZM113.011 137.992V134.984H111.011V137.992H113.011ZM118.25 129.352L117.25 129.337L117.25 129.344V129.352H118.25ZM119.946 126.056L119.355 125.249L119.355 125.249L119.946 126.056ZM123.562 124.872L123.545 125.872L123.545 125.872L123.562 124.872ZM126.826 125.576L126.361 126.461L126.369 126.466L126.378 126.47L126.826 125.576ZM128.074 127.496L129.073 127.533L129.073 127.521L128.074 127.496ZM127.466 128.744L128.02 129.576L128.02 129.576L127.466 128.744ZM126.218 129.064L125.218 129.035L125.191 129.971L126.123 130.059L126.218 129.064ZM125.514 127.24L124.806 127.947L124.814 127.955L124.822 127.963L125.514 127.24ZM123.434 126.504L123.41 127.504L123.41 127.504L123.434 126.504ZM121.13 127.144L121.711 127.958L121.716 127.954L121.13 127.144ZM121.098 130.472L120.53 131.295L120.546 131.306L120.562 131.317L121.098 130.472ZM123.786 131.752L124.148 130.82L124.148 130.82L123.786 131.752ZM126.122 132.744L125.656 133.629L125.683 133.643L125.711 133.656L126.122 132.744ZM127.498 133.544L128.07 132.724L128.069 132.723L127.498 133.544ZM128.81 136.456L127.81 136.423L127.81 136.431L127.81 136.44L128.81 136.456ZM127.114 139.976L127.792 140.711L127.799 140.704L127.114 139.976ZM122.666 141.48L122.633 142.479L122.644 142.48L122.654 142.48L122.666 141.48ZM119.178 140.648L118.708 141.531L118.715 141.535L118.723 141.539L119.178 140.648ZM117.674 138.472L116.674 138.429L116.674 138.45V138.472H117.674ZM118.154 137.32L118.834 138.053L118.836 138.051L118.154 137.32ZM119.306 136.904L120.287 136.712L120.137 135.942L119.353 135.905L119.306 136.904ZM120.586 139.016L119.97 139.804L119.976 139.809L119.982 139.813L120.586 139.016ZM123.178 139.848L123.157 140.848L123.167 140.848H123.178V139.848ZM125.738 139.144L126.304 139.968L126.313 139.962L126.321 139.956L125.738 139.144ZM126.794 137.224L127.793 137.251L127.793 137.251L126.794 137.224ZM126.058 135.432L125.421 136.203L125.429 136.21L125.437 136.216L126.058 135.432ZM123.914 134.312L123.553 135.245L123.562 135.248L123.572 135.252L123.914 134.312ZM121.93 133.544L121.549 134.469L121.558 134.472L121.567 134.476L121.93 133.544ZM120.554 132.872L120.065 133.745L120.072 133.749L120.079 133.752L120.554 132.872ZM119.306 131.976L118.578 132.662L118.588 132.673L118.598 132.683L119.306 131.976ZM119.249 129.367C119.266 128.291 119.682 127.487 120.536 126.863L119.355 125.249C117.99 126.246 117.276 127.64 117.25 129.337L119.249 129.367ZM120.536 126.863C121.48 126.174 122.474 125.854 123.545 125.872L123.578 123.872C122.046 123.847 120.63 124.317 119.355 125.249L120.536 126.863ZM123.545 125.872C124.767 125.892 125.688 126.108 126.361 126.461L127.29 124.691C126.257 124.148 125.002 123.895 123.578 123.872L123.545 125.872ZM126.378 126.47C126.685 126.624 126.85 126.783 126.939 126.921C127.024 127.052 127.08 127.221 127.074 127.471L129.073 127.521C129.088 126.917 128.947 126.34 128.616 125.831C128.289 125.329 127.819 124.955 127.273 124.682L126.378 126.47ZM127.074 127.459C127.061 127.803 126.961 127.879 126.911 127.912L128.02 129.576C128.738 129.097 129.043 128.341 129.073 127.533L127.074 127.459ZM126.911 127.912C126.713 128.044 126.525 128.089 126.312 128.069L126.123 130.059C126.806 130.125 127.45 129.956 128.02 129.576L126.911 127.912ZM127.217 129.093C127.246 128.095 126.922 127.203 126.205 126.517L124.822 127.963C125.087 128.216 125.232 128.54 125.218 129.035L127.217 129.093ZM126.221 126.533C125.509 125.822 124.532 125.529 123.457 125.504L123.41 127.504C124.17 127.521 124.579 127.72 124.806 127.947L126.221 126.533ZM123.457 125.504C122.366 125.479 121.372 125.734 120.543 126.334L121.716 127.954C122.124 127.658 122.666 127.486 123.41 127.504L123.457 125.504ZM120.548 126.33C119.719 126.923 119.234 127.756 119.202 128.777L121.201 128.839C121.212 128.494 121.345 128.219 121.711 127.958L120.548 126.33ZM119.202 128.777C119.169 129.838 119.665 130.699 120.53 131.295L121.665 129.649C121.293 129.392 121.191 129.144 121.201 128.839L119.202 128.777ZM120.562 131.317C121.28 131.771 122.243 132.225 123.423 132.684L124.148 130.82C123.024 130.383 122.195 129.983 121.633 129.627L120.562 131.317ZM123.423 132.684C124.58 133.134 125.308 133.446 125.656 133.629L126.587 131.859C126.125 131.616 125.295 131.266 124.148 130.82L123.423 132.684ZM125.711 133.656C126.069 133.817 126.473 134.05 126.926 134.365L128.069 132.723C127.54 132.356 127.028 132.055 126.532 131.832L125.711 133.656ZM126.925 134.364C127.516 134.776 127.844 135.395 127.81 136.423L129.809 136.489C129.861 134.914 129.314 133.592 128.07 132.724L126.925 134.364ZM127.81 136.44C127.793 137.425 127.377 138.354 126.428 139.248L127.799 140.704C129.069 139.508 129.783 138.09 129.809 136.472L127.81 136.44ZM126.435 139.241C125.554 140.054 124.339 140.499 122.677 140.48L122.654 142.48C124.704 142.503 126.454 141.946 127.792 140.711L126.435 139.241ZM122.698 140.481C121.497 140.442 120.483 140.192 119.632 139.757L118.723 141.539C119.878 142.128 121.189 142.433 122.633 142.479L122.698 140.481ZM119.647 139.765C118.879 139.356 118.674 138.926 118.674 138.472H116.674C116.674 139.853 117.471 140.873 118.708 141.531L119.647 139.765ZM118.673 138.515C118.685 138.23 118.766 138.116 118.834 138.053L117.473 136.587C116.943 137.079 116.705 137.733 116.674 138.429L118.673 138.515ZM118.836 138.051C118.953 137.941 119.072 137.894 119.258 137.903L119.353 135.905C118.643 135.871 117.994 136.101 117.471 136.589L118.836 138.051ZM118.324 137.096C118.539 138.199 119.091 139.118 119.97 139.804L121.201 138.228C120.714 137.848 120.413 137.358 120.287 136.712L118.324 137.096ZM119.982 139.813C120.88 140.493 121.957 140.823 123.157 140.848L123.198 138.848C122.35 138.831 121.699 138.605 121.189 138.219L119.982 139.813ZM123.178 140.848C124.356 140.848 125.419 140.577 126.304 139.968L125.171 138.32C124.691 138.65 124.047 138.848 123.178 138.848V140.848ZM126.321 139.956C127.238 139.297 127.763 138.375 127.793 137.251L125.794 137.197C125.782 137.651 125.602 138.01 125.154 138.332L126.321 139.956ZM127.793 137.251C127.821 136.221 127.49 135.291 126.678 134.648L125.437 136.216C125.649 136.384 125.809 136.649 125.794 137.197L127.793 137.251ZM126.694 134.661C126.08 134.154 125.247 133.733 124.255 133.372L123.572 135.252C124.457 135.574 125.053 135.9 125.421 136.203L126.694 134.661ZM124.274 133.379C123.335 133.017 122.675 132.761 122.292 132.612L121.567 134.476C121.952 134.626 122.614 134.882 123.553 135.245L124.274 133.379ZM122.31 132.619C121.993 132.489 121.568 132.282 121.028 131.992L120.079 133.752C120.649 134.059 121.141 134.301 121.549 134.469L122.31 132.619ZM121.042 131.999C120.556 131.728 120.225 131.481 120.013 131.269L118.598 132.683C118.984 133.069 119.484 133.419 120.065 133.745L121.042 131.999ZM120.033 131.29C119.499 130.724 119.25 130.093 119.25 129.352H117.25C117.25 130.616 117.704 131.735 118.578 132.662L120.033 131.29ZM141.627 141H140.627V142H141.627V141ZM142.651 139.624L142.602 138.625L142.579 138.626L142.557 138.628L142.651 139.624ZM143.963 139.56L144.011 140.559L144.963 140.512V139.56H143.963ZM142.971 128.04L142.204 128.682L142.213 128.693L142.971 128.04ZM137.786 127.368L137.339 126.473L137.328 126.479L137.786 127.368ZM135.643 128.904L134.978 128.157L134.643 128.455V128.904H135.643ZM135.643 139.496H134.643V140.42L135.564 140.493L135.643 139.496ZM138.075 139.688L139.07 139.591L138.988 138.757L138.153 138.691L138.075 139.688ZM131.099 141H130.099V142H131.099V141ZM131.547 139.784L131.94 140.703L131.993 140.681L132.043 140.652L131.547 139.784ZM132.091 139.624L132.043 138.625L132.017 138.626L131.991 138.629L132.091 139.624ZM133.435 139.56L133.482 140.559L134.435 140.514V139.56H133.435ZM133.435 120.808H134.435V119.9L133.53 119.813L133.435 120.808ZM131.771 120.648L131.646 121.64L131.661 121.642L131.675 121.643L131.771 120.648ZM131.003 119.272L130.873 118.28L130.003 118.394V119.272H131.003ZM135.643 118.664H136.643V117.524L135.513 117.672L135.643 118.664ZM135.643 127.144H134.643V129.608L136.36 127.841L135.643 127.144ZM144.507 126.44L143.807 127.154L143.814 127.161L144.507 126.44ZM146.139 131.336L147.139 131.332L147.138 131.326L146.139 131.336ZM146.171 139.496L145.171 139.5L145.174 140.419L146.091 140.493L146.171 139.496ZM148.571 139.688L149.566 139.591L149.485 138.758L148.65 138.691L148.571 139.688ZM147.707 140H141.627V142H147.707V140ZM142.627 141V140.744H140.627V141H142.627ZM142.627 140.744C142.627 140.655 142.638 140.61 142.642 140.598C142.645 140.588 142.641 140.605 142.621 140.627C142.6 140.649 142.585 140.654 142.595 140.65C142.609 140.644 142.653 140.628 142.744 140.62L142.557 138.628C142.058 138.675 141.535 138.851 141.144 139.277C140.754 139.705 140.627 140.242 140.627 140.744H142.627ZM142.699 140.623L144.011 140.559L143.914 138.561L142.602 138.625L142.699 140.623ZM144.963 139.56V131.528H142.963V139.56H144.963ZM144.963 131.528C144.963 129.854 144.611 128.412 143.728 127.387L142.213 128.693C142.653 129.204 142.963 130.087 142.963 131.528H144.963ZM143.737 127.398C142.878 126.372 141.729 125.856 140.379 125.856V127.856C141.162 127.856 141.74 128.129 142.204 128.682L143.737 127.398ZM140.379 125.856C139.232 125.856 138.202 126.042 137.339 126.474L138.234 128.262C138.736 128.011 139.434 127.856 140.379 127.856V125.856ZM137.328 126.479C136.57 126.87 135.787 127.438 134.978 128.157L136.307 129.651C137.034 129.005 137.68 128.548 138.245 128.257L137.328 126.479ZM134.643 128.904V139.496H136.643V128.904H134.643ZM135.564 140.493L137.996 140.685L138.153 138.691L135.721 138.499L135.564 140.493ZM137.079 139.785C137.095 139.944 137.089 140.045 137.079 140.102C137.07 140.157 137.062 140.147 137.089 140.108C137.102 140.088 137.121 140.067 137.145 140.046C137.17 140.026 137.193 140.013 137.211 140.005C137.247 139.989 137.246 140 137.179 140V142C137.744 142 138.352 141.805 138.74 141.236C139.085 140.732 139.121 140.119 139.07 139.591L137.079 139.785ZM137.179 140H131.099V142H137.179V140ZM132.099 141V140.744H130.099V141H132.099ZM132.099 140.744C132.099 140.663 132.104 140.608 132.111 140.573C132.117 140.538 132.122 140.531 132.117 140.543C132.11 140.556 132.093 140.588 132.058 140.623C132.021 140.659 131.98 140.686 131.94 140.703L131.153 138.865C130.296 139.232 130.099 140.091 130.099 140.744H132.099ZM132.043 140.652C132.044 140.651 132.083 140.63 132.19 140.619L131.991 138.629C131.671 138.661 131.348 138.746 131.05 138.916L132.043 140.652ZM132.138 140.623L133.482 140.559L133.387 138.561L132.043 138.625L132.138 140.623ZM134.435 139.56V120.808H132.435V139.56H134.435ZM133.53 119.813L131.866 119.653L131.675 121.643L133.339 121.803L133.53 119.813ZM131.895 119.656C131.906 119.657 131.948 119.666 131.997 119.699C132.046 119.732 132.066 119.765 132.068 119.769C132.068 119.769 132.063 119.76 132.056 119.74C132.049 119.719 132.04 119.689 132.032 119.646C132.015 119.56 132.003 119.438 132.003 119.272H130.003C130.003 119.774 130.074 120.3 130.321 120.743C130.601 121.245 131.068 121.568 131.646 121.64L131.895 119.656ZM131.132 120.264L135.772 119.656L135.513 117.672L130.873 118.28L131.132 120.264ZM134.643 118.664V127.144H136.643V118.664H134.643ZM136.36 127.841C137.669 126.493 139.094 125.872 140.667 125.872V123.872C138.484 123.872 136.56 124.765 134.925 126.447L136.36 127.841ZM140.667 125.872C141.898 125.872 142.927 126.292 143.807 127.154L145.206 125.726C143.953 124.497 142.422 123.872 140.667 123.872V125.872ZM143.814 127.161C144.606 127.922 145.118 129.238 145.139 131.346L147.138 131.326C147.116 128.954 146.54 127.006 145.199 125.719L143.814 127.161ZM145.139 131.34L145.171 139.5L147.17 139.492L147.138 131.332L145.139 131.34ZM146.091 140.493L148.491 140.685L148.65 138.691L146.25 138.499L146.091 140.493ZM147.575 139.785C147.591 139.946 147.585 140.05 147.576 140.109C147.567 140.168 147.558 140.16 147.583 140.122C147.596 140.102 147.615 140.079 147.641 140.057C147.666 140.035 147.692 140.02 147.714 140.01C147.757 139.99 147.764 140 147.707 140V142C148.273 142 148.876 141.796 149.254 141.222C149.584 140.72 149.617 140.115 149.566 139.591L147.575 139.785ZM165.407 125.352H166.407V124.352H165.407V125.352ZM164.959 126.536L164.565 125.617L164.513 125.639L164.463 125.668L164.959 126.536ZM163.487 126.792L163.385 125.797L163.005 125.836L162.748 126.119L163.487 126.792ZM158.911 131.816L158.172 131.143L157.622 131.746L158.103 132.405L158.911 131.816ZM164.511 139.496L163.703 140.085L163.97 140.452L164.422 140.492L164.511 139.496ZM166.655 139.688L167.65 139.591L167.57 138.766L166.744 138.692L166.655 139.688ZM163.103 141L162.296 141.591L162.596 142H163.103V141ZM157.503 133.352L158.31 132.761L157.589 131.776L156.765 132.677L157.503 133.352ZM155.455 135.592L154.717 134.917L154.455 135.204V135.592H155.455ZM155.455 139.496H154.455V140.42L155.376 140.493L155.455 139.496ZM157.887 139.688L158.882 139.591L158.801 138.757L157.966 138.691L157.887 139.688ZM150.911 141H149.911V142H150.911V141ZM151.359 139.784L151.753 140.703L151.805 140.681L151.855 140.652L151.359 139.784ZM151.903 139.624L151.855 138.625L151.829 138.626L151.803 138.629L151.903 139.624ZM153.247 139.56L153.295 140.559L154.247 140.514V139.56H153.247ZM153.247 120.808H154.247V119.917L153.362 119.815L153.247 120.808ZM151.583 120.616L151.698 119.623L151.682 119.621L151.666 119.619L151.583 120.616ZM150.815 119.24L150.692 118.248L149.815 118.356V119.24H150.815ZM155.455 118.664H156.455V117.532L155.332 117.672L155.455 118.664ZM155.455 133.512H154.455V136.13L156.2 134.179L155.455 133.512ZM161.407 126.856L162.152 127.523L163.463 126.057L161.507 125.861L161.407 126.856ZM159.487 126.664L158.492 126.761L158.571 127.577L159.387 127.659L159.487 126.664ZM160.383 126.352H165.407V124.352H160.383V126.352ZM164.407 125.352V125.576H166.407V125.352H164.407ZM164.407 125.576C164.407 125.657 164.401 125.712 164.395 125.747C164.388 125.782 164.383 125.789 164.389 125.777C164.395 125.764 164.413 125.732 164.448 125.697C164.484 125.661 164.526 125.634 164.565 125.617L165.353 127.455C166.21 127.088 166.407 126.229 166.407 125.576H164.407ZM164.463 125.668C164.541 125.623 164.584 125.618 164.525 125.634C164.484 125.645 164.414 125.66 164.308 125.679C164.095 125.716 163.791 125.756 163.385 125.797L163.589 127.787C164.015 127.743 164.372 127.698 164.65 127.649C164.789 127.625 164.922 127.598 165.041 127.566C165.142 127.539 165.302 127.491 165.455 127.404L164.463 125.668ZM162.748 126.119L158.172 131.143L159.65 132.489L164.226 127.465L162.748 126.119ZM158.103 132.405L163.703 140.085L165.319 138.907L159.719 131.227L158.103 132.405ZM164.422 140.492L166.566 140.684L166.744 138.692L164.6 138.5L164.422 140.492ZM165.66 139.785C165.675 139.942 165.668 140.04 165.659 140.094C165.65 140.145 165.643 140.133 165.671 140.095C165.684 140.075 165.703 140.055 165.726 140.036C165.749 140.018 165.77 140.006 165.785 140C165.813 139.988 165.803 140 165.727 140V142C166.291 142 166.905 141.813 167.303 141.249C167.662 140.743 167.702 140.124 167.65 139.591L165.66 139.785ZM165.727 140H163.103V142H165.727V140ZM163.91 140.409L158.31 132.761L156.696 133.943L162.296 141.591L163.91 140.409ZM156.765 132.677L154.717 134.917L156.193 136.267L158.241 134.027L156.765 132.677ZM154.455 135.592V139.496H156.455V135.592H154.455ZM155.376 140.493L157.808 140.685L157.966 138.691L155.534 138.499L155.376 140.493ZM156.892 139.785C156.907 139.946 156.902 140.05 156.893 140.109C156.884 140.168 156.875 140.16 156.9 140.122C156.913 140.102 156.932 140.079 156.957 140.057C156.983 140.035 157.009 140.02 157.031 140.01C157.073 139.99 157.081 140 157.023 140V142C157.59 142 158.192 141.796 158.57 141.222C158.901 140.72 158.933 140.115 158.882 139.591L156.892 139.785ZM157.023 140H150.911V142H157.023V140ZM151.911 141V140.744H149.911V141H151.911ZM151.911 140.744C151.911 140.663 151.917 140.608 151.923 140.573C151.93 140.538 151.935 140.531 151.929 140.543C151.923 140.556 151.905 140.588 151.87 140.623C151.834 140.659 151.792 140.686 151.753 140.703L150.965 138.865C150.108 139.232 149.911 140.091 149.911 140.744H151.911ZM151.855 140.652C151.856 140.651 151.895 140.63 152.003 140.619L151.803 138.629C151.484 138.661 151.16 138.746 150.863 138.916L151.855 140.652ZM151.951 140.623L153.295 140.559L153.199 138.561L151.855 138.625L151.951 140.623ZM154.247 139.56V120.808H152.247V139.56H154.247ZM153.362 119.815L151.698 119.623L151.468 121.609L153.132 121.801L153.362 119.815ZM151.666 119.619C151.683 119.621 151.735 119.63 151.794 119.669C151.852 119.707 151.877 119.747 151.88 119.753C151.881 119.754 151.863 119.72 151.845 119.629C151.828 119.54 151.815 119.412 151.815 119.24H149.815C149.815 119.748 149.885 120.281 150.134 120.727C150.42 121.24 150.903 121.563 151.5 121.613L151.666 119.619ZM150.938 120.232L155.578 119.656L155.332 117.672L150.692 118.248L150.938 120.232ZM154.455 118.664V133.512H156.455V118.664H154.455ZM156.2 134.179L162.152 127.523L160.662 126.189L154.71 132.845L156.2 134.179ZM161.507 125.861L159.587 125.669L159.387 127.659L161.307 127.851L161.507 125.861ZM160.482 126.567C160.467 126.408 160.473 126.307 160.482 126.25C160.491 126.195 160.499 126.205 160.473 126.244C160.459 126.264 160.441 126.285 160.416 126.306C160.392 126.326 160.368 126.339 160.35 126.347C160.315 126.363 160.316 126.352 160.383 126.352V124.352C159.818 124.352 159.21 124.547 158.821 125.116C158.477 125.62 158.44 126.233 158.492 126.761L160.482 126.567ZM171.715 125.352H172.715V124.352H171.715V125.352ZM172.707 138.376L171.932 139.008L171.94 139.018L172.707 138.376ZM179.651 137.8L180.308 138.553L180.651 138.254V137.8H179.651ZM179.651 126.856H180.651V125.919L179.715 125.858L179.651 126.856ZM177.187 126.696L176.191 126.791L176.272 127.639L177.122 127.694L177.187 126.696ZM181.859 125.352H182.859V124.352H181.859V125.352ZM181.859 139.176H180.859V140.079L181.757 140.171L181.859 139.176ZM183.427 139.336L183.325 140.331L183.332 140.332L183.34 140.332L183.427 139.336ZM184.163 140.712L184.245 141.709L185.163 141.633V140.712H184.163ZM180.291 141.032L179.319 141.27L179.523 142.099L180.373 142.029L180.291 141.032ZM179.875 139.336L180.846 139.098L180.423 137.374L179.167 138.629L179.875 139.336ZM171.139 139.912L170.446 140.633L171.139 139.912ZM169.507 126.856H170.507V125.92L169.572 125.858L169.507 126.856ZM167.075 126.696H166.075V127.632L167.009 127.694L167.075 126.696ZM168.075 126.28C168.075 126.203 168.084 126.175 168.082 126.18C168.079 126.19 168.063 126.232 168.018 126.279C167.997 126.301 167.974 126.318 167.952 126.332C167.931 126.345 167.914 126.352 167.905 126.355C167.889 126.361 167.905 126.352 167.971 126.352V124.352C167.509 124.352 166.981 124.474 166.579 124.889C166.184 125.299 166.075 125.825 166.075 126.28H168.075ZM167.971 126.352H171.715V124.352H167.971V126.352ZM170.715 125.352V134.792H172.715V125.352H170.715ZM170.715 134.792C170.715 136.489 171.067 137.948 171.932 139.008L173.481 137.744C173.024 137.183 172.715 136.253 172.715 134.792H170.715ZM171.94 139.018C172.84 140.092 174.138 140.56 175.651 140.56V138.56C174.56 138.56 173.896 138.239 173.473 137.734L171.94 139.018ZM175.651 140.56C177.288 140.56 178.846 139.83 180.308 138.553L178.993 137.047C177.767 138.117 176.658 138.56 175.651 138.56V140.56ZM180.651 137.8V126.856H178.651V137.8H180.651ZM179.715 125.858L177.251 125.698L177.122 127.694L179.586 127.854L179.715 125.858ZM178.182 126.601C178.166 126.434 178.171 126.323 178.181 126.257C178.191 126.192 178.202 126.194 178.18 126.229C178.152 126.272 178.105 126.315 178.051 126.34C178.006 126.362 177.995 126.352 178.051 126.352V124.352C177.474 124.352 176.871 124.566 176.497 125.147C176.173 125.651 176.14 126.26 176.191 126.791L178.182 126.601ZM178.051 126.352H181.859V124.352H178.051V126.352ZM180.859 125.352V139.176H182.859V125.352H180.859ZM181.757 140.171L183.325 140.331L183.528 138.341L181.96 138.181L181.757 140.171ZM183.34 140.332C183.31 140.33 183.25 140.316 183.186 140.272C183.123 140.23 183.099 140.187 183.097 140.184C183.096 140.183 183.101 140.192 183.109 140.214C183.116 140.237 183.125 140.269 183.133 140.315C183.15 140.408 183.163 140.538 183.163 140.712H185.163C185.163 140.209 185.097 139.682 184.86 139.24C184.589 138.733 184.117 138.392 183.513 138.34L183.34 140.332ZM184.08 139.715L180.208 140.035L180.373 142.029L184.245 141.709L184.08 139.715ZM181.262 140.794L180.846 139.098L178.903 139.574L179.319 141.27L181.262 140.794ZM179.167 138.629C177.905 139.892 176.52 140.48 174.979 140.48V142.48C177.107 142.48 178.986 141.639 180.582 140.043L179.167 138.629ZM174.979 140.48C173.772 140.48 172.738 140.062 171.831 139.191L170.446 140.633C171.715 141.852 173.241 142.48 174.979 142.48V140.48ZM171.831 139.191C171.018 138.409 170.507 137.084 170.507 134.984H168.507C168.507 137.364 169.083 139.324 170.446 140.633L171.831 139.191ZM170.507 134.984V126.856H168.507V134.984H170.507ZM169.572 125.858L167.14 125.698L167.009 127.694L169.441 127.854L169.572 125.858ZM168.075 126.696V126.28H166.075V126.696H168.075Z" mask="url(#path-6-outside-2_1063_494)"/></g><path stroke="#000" d="M82 114.5H119"/><defs><filter id="filter0_d_1063_494" width="107" height="152.6" x="78.6" y="55.4" color-interpolation-filters="sRGB" filterUnits="userSpaceOnUse"><feFlood flood-opacity="0" result="BackgroundImageFix"/><feColorMatrix in="SourceAlpha" result="hardAlpha" type="matrix" values="0 0 0 0 0 0 0 0 0 0 0 0 0 0 0 0 0 0 127 0"/><feOffset dy="4"/><feGaussianBlur stdDeviation="2"/><feComposite in2="hardAlpha" operator="out"/><feColorMatrix type="matrix" values="0 0 0 0 0 0 0 0 0 0 0 0 0 0 0 0 0 0 0.25 0"/><feBlend in2="BackgroundImageFix" mode="normal" result="effect1_dropShadow_1063_494"/><feBlend in="SourceGraphic" in2="effect1_dropShadow_1063_494" mode="normal" result="shape"/></filter><filter id="filter1_d_1063_494" width="108.043" height="30.848" x="80.12" y="118.664" color-interpolation-filters="sRGB" filterUnits="userSpaceOnUse"><feFlood flood-opacity="0" result="BackgroundImageFix"/><feColorMatrix in="SourceAlpha" result="hardAlpha" type="matrix" values="0 0 0 0 0 0 0 0 0 0 0 0 0 0 0 0 0 0 127 0"/><feOffset dy="4"/><feGaussianBlur stdDeviation="2"/><feComposite in2="hardAlpha" operator="out"/><feColorMatrix type="matrix" values="0 0 0 0 0 0 0 0 0 0 0 0 0 0 0 0 0 0 0.25 0"/><feBlend in2="BackgroundImageFix" mode="normal" result="effect1_dropShadow_1063_494"/><feBlend in="SourceGraphic" in2="effect1_dropShadow_1063_494" mode="normal" result="shape"/></filter></defs></svg>