<svg width="38" height="40" viewBox="0 0 38 40" fill="none" xmlns="http://www.w3.org/2000/svg">
<path d="M20.6667 1.66666H14C13.558 1.66666 13.1341 1.84225 12.8215 2.15481C12.509 2.46737 12.3334 2.8913 12.3334 3.33332V16.6667C12.3334 17.1087 12.509 17.5326 12.8215 17.8452C13.1341 18.1577 13.558 18.3333 14 18.3333H24C24.4421 18.3333 24.866 18.1577 25.1786 17.8452C25.4911 17.5326 25.6667 17.1087 25.6667 16.6667V6.66666L20.6667 1.66666Z" stroke="#14193F" stroke-width="2" stroke-linecap="round" stroke-linejoin="round"/>
<path d="M22.3333 14.1667H15.6666" stroke="#14193F" stroke-width="2" stroke-linecap="round" stroke-linejoin="round"/>
<path d="M22.3333 10.8333H15.6666" stroke="#14193F" stroke-width="2" stroke-linecap="round" stroke-linejoin="round"/>
<path d="M17.3333 7.5H16.5H15.6666" stroke="#14193F" stroke-width="2" stroke-linecap="round" stroke-linejoin="round"/>
<path d="M20.6666 1.66666V6.66666H25.6666" stroke="#14193F" stroke-width="2" stroke-linecap="round" stroke-linejoin="round"/>
<path d="M7.85371 28.94V36H6.70371V32.83H3.38371V36H2.24371V28.94H3.38371V31.9H6.70371V28.94H7.85371ZM9.0759 28.89C9.0759 28.6967 9.14257 28.5367 9.2759 28.41C9.40923 28.2833 9.5859 28.22 9.8059 28.22C10.0259 28.22 10.2026 28.2833 10.3359 28.41C10.4759 28.5367 10.5459 28.6967 10.5459 28.89C10.5459 29.0833 10.4759 29.24 10.3359 29.36C10.2026 29.48 10.0259 29.54 9.8059 29.54C9.5859 29.54 9.40923 29.48 9.2759 29.36C9.14257 29.24 9.0759 29.0833 9.0759 28.89ZM10.3759 30.49V36H9.2359V30.49H10.3759ZM13.5654 30.42C14.2121 30.42 14.7288 30.5867 15.1154 30.92C15.5088 31.2467 15.7488 31.6867 15.8354 32.24H14.7554C14.7088 31.94 14.5788 31.7 14.3654 31.52C14.1588 31.3333 13.8821 31.24 13.5354 31.24C13.2488 31.24 13.0254 31.31 12.8654 31.45C12.7121 31.5833 12.6354 31.7667 12.6354 32C12.6354 32.1733 12.6921 32.3133 12.8054 32.42C12.9188 32.5267 13.0588 32.61 13.2254 32.67C13.3988 32.73 13.6421 32.7967 13.9554 32.87C14.3688 32.9633 14.7021 33.06 14.9554 33.16C15.2154 33.26 15.4354 33.42 15.6154 33.64C15.8021 33.8533 15.8954 34.1467 15.8954 34.52C15.8954 34.98 15.7188 35.3533 15.3654 35.64C15.0188 35.9267 14.5488 36.07 13.9554 36.07C13.2688 36.07 12.7121 35.91 12.2854 35.59C11.8654 35.27 11.6121 34.8233 11.5254 34.25H12.6354C12.6688 34.55 12.8021 34.7933 13.0354 34.98C13.2688 35.1667 13.5754 35.26 13.9554 35.26C14.2288 35.26 14.4421 35.19 14.5954 35.05C14.7554 34.9033 14.8354 34.72 14.8354 34.5C14.8354 34.3067 14.7754 34.1533 14.6554 34.04C14.5354 33.9267 14.3854 33.84 14.2054 33.78C14.0254 33.7133 13.7788 33.6467 13.4654 33.58C13.0654 33.4867 12.7388 33.3933 12.4854 33.3C12.2388 33.2067 12.0254 33.0567 11.8454 32.85C11.6721 32.6367 11.5854 32.35 11.5854 31.99C11.5854 31.5233 11.7588 31.1467 12.1054 30.86C12.4588 30.5667 12.9454 30.42 13.5654 30.42ZM19.8086 35.01V36H19.1086C18.522 36 18.0753 35.86 17.7686 35.58C17.4686 35.2933 17.3186 34.82 17.3186 34.16V31.46H16.5286V30.49H17.3186V29.12H18.4686V30.49H19.7986V31.46H18.4686V34.18C18.4686 34.4933 18.5253 34.71 18.6386 34.83C18.7586 34.95 18.9653 35.01 19.2586 35.01H19.8086ZM23.3965 30.42C23.9299 30.42 24.4099 30.5333 24.8365 30.76C25.2632 30.9867 25.5965 31.3133 25.8365 31.74C26.0765 32.1667 26.1965 32.6667 26.1965 33.24C26.1965 33.82 26.0765 34.3233 25.8365 34.75C25.5965 35.1767 25.2632 35.5033 24.8365 35.73C24.4099 35.9567 23.9299 36.07 23.3965 36.07C22.8632 36.07 22.3832 35.9567 21.9565 35.73C21.5365 35.5033 21.2032 35.1767 20.9565 34.75C20.7165 34.3167 20.5965 33.8133 20.5965 33.24C20.5965 32.6667 20.7165 32.1667 20.9565 31.74C21.2032 31.3133 21.5365 30.9867 21.9565 30.76C22.3832 30.5333 22.8632 30.42 23.3965 30.42ZM23.3965 31.41C23.1032 31.41 22.8332 31.4767 22.5865 31.61C22.3399 31.7433 22.1399 31.95 21.9865 32.23C21.8399 32.5033 21.7665 32.84 21.7665 33.24C21.7665 33.6467 21.8399 33.9867 21.9865 34.26C22.1399 34.5333 22.3399 34.7367 22.5865 34.87C22.8332 35.0033 23.1032 35.07 23.3965 35.07C23.6899 35.07 23.9599 35.0033 24.2065 34.87C24.4532 34.7367 24.6499 34.5333 24.7965 34.26C24.9499 33.9867 25.0265 33.6467 25.0265 33.24C25.0265 32.84 24.9499 32.5033 24.7965 32.23C24.6499 31.95 24.4532 31.7433 24.2065 31.61C23.9599 31.4767 23.6899 31.41 23.3965 31.41ZM28.4325 31.57C28.6192 31.21 28.8859 30.9267 29.2325 30.72C29.5792 30.5067 29.9792 30.4 30.4325 30.4V31.64H30.0925C29.5925 31.64 29.1892 31.7633 28.8825 32.01C28.5825 32.25 28.4325 32.65 28.4325 33.21V36H27.2925V30.49H28.4325V31.57ZM31.9367 30.49L33.5867 34.54L35.1167 30.49H36.3867L33.0567 38.62H31.7867L32.9767 35.87L30.6567 30.49H31.9367Z" fill="#14193F"/>
</svg>
