<svg width="55" height="30" viewBox="0 0 55 30" fill="none" xmlns="http://www.w3.org/2000/svg">
<g clip-path="url(#clip0_172_601)">
<path d="M12.0438 11.7268C11.0632 11.8376 10.1812 11.1334 10.0696 10.1544C9.95874 9.17455 10.663 8.291 11.6428 8.18015C12.6218 8.07013 13.5061 8.77359 13.6155 9.75264C13.7278 10.7323 13.0228 11.6167 12.0438 11.7268ZM18.8423 6.98484C17.6539 6.59769 17.0051 5.31927 17.3907 4.13168C17.7794 2.94333 19.057 2.2937 20.2462 2.68161C21.433 3.06876 22.0841 4.34641 21.6962 5.53559C21.3083 6.72389 20.0315 7.37275 18.8423 6.98484ZM26.7184 4.72967C25.6354 3.67135 25.6154 1.93495 26.6738 0.852072C27.7321 -0.230093 29.4685 -0.250048 30.5521 0.808983C31.6343 1.8673 31.6535 3.6037 30.5952 4.68581C29.5361 5.76874 27.7997 5.78875 26.7184 4.72967ZM34.3919 5.19378C33.75 3.53517 34.5736 1.67022 36.2331 1.02909C37.8901 0.386423 39.7558 1.21071 40.3977 2.86937C41.0396 4.52727 40.2161 6.39294 38.5575 7.03407C36.8973 7.67602 35.0347 6.85168 34.3919 5.19378ZM41.9763 8.39872C41.9763 6.2652 43.7066 4.535 45.8416 4.535C47.9752 4.535 49.7046 6.26526 49.7046 8.39872C49.7046 10.5315 47.9752 12.2633 45.8416 12.2633C43.7065 12.2632 41.9763 10.5315 41.9763 8.39872Z" fill="#ED1A3D"/>
<path d="M33.9927 16.3079C32.6928 15.6544 31.2612 15.2942 29.9627 15.2942C26.9079 15.2942 24.6913 17.5116 24.6913 20.5656C24.6913 22.974 26.0612 25.4054 29.1199 25.4054C29.9234 25.4054 30.6393 25.2368 31.2766 24.8874V25.3284C31.2766 26.499 31.011 27.582 29.0807 27.582C28.6327 27.582 28.2094 27.5127 27.8254 27.4042C27.342 27.2611 26.8879 27.0271 26.4377 26.8008L26.3869 26.7776C26.2753 26.7308 26.1544 26.7361 26.0428 26.7815C25.9582 26.8146 25.8974 26.87 25.845 26.9424C25.7819 27.0271 25.1462 28.0107 25.1023 28.0985L25.0454 28.2678L25.0385 28.3355C25.0385 28.4725 25.0977 28.5949 25.1909 28.6819C25.3917 28.8689 25.6419 29.0128 25.882 29.1437C25.9528 29.1821 26.0251 29.2167 26.0967 29.2522C26.8387 29.6185 27.9285 29.9726 29.3756 29.9726C30.9226 29.9726 32.1464 29.5347 33.0099 28.6703C34.0767 27.6035 34.0767 26.529 34.0767 25.1713V16.3478L33.9927 16.3079ZM31.2766 22.653C31.1257 22.7508 30.4754 23.0948 29.728 23.0948C28.6327 23.0948 27.5306 22.2697 27.5306 20.4279C27.5306 18.7647 28.515 17.6032 29.9227 17.6032C30.5493 17.6032 31.095 17.7957 31.2766 17.8665V22.653ZM13.2455 16.0092L13.237 15.9468C13.2009 15.7321 13.0138 15.5689 12.7899 15.5689H10.8619C10.6102 15.5689 10.4062 15.7736 10.4062 16.0253V24.949C10.4062 25.2007 10.6102 25.4054 10.8619 25.4054H12.7899C13.0154 25.4054 13.2016 25.2399 13.2378 25.0244L13.2455 24.9559L13.2455 16.0092ZM54.7954 13.1052C54.7808 12.8659 54.5845 12.6773 54.3437 12.6773H52.4141C52.1662 12.6773 51.9684 12.8751 51.9623 13.1229V24.9836C51.9808 25.2191 52.1755 25.4047 52.4141 25.4047H54.3437C54.5876 25.4047 54.7855 25.2107 54.7954 24.9682V13.1052ZM46.463 15.2942C43.726 15.2942 41.7403 17.5023 41.7403 20.5448C41.7403 23.6643 43.6629 25.6793 46.6392 25.6793C48.3202 25.6793 49.5825 25.0659 50.0519 24.7995C50.1467 24.7495 50.4083 24.5163 50.182 24.0745L49.7133 23.1555C49.5855 22.91 49.41 22.8576 49.2861 22.8576C49.2246 22.8576 49.1622 22.8699 49.0683 22.9084L49.0106 22.9362C48.2693 23.2671 47.5698 23.428 46.8739 23.428C46.1189 23.428 45.4916 23.1879 45.0606 22.7322C44.6781 22.3281 44.5088 21.8132 44.5003 21.4461H50.8908V20.5263C50.8909 17.2499 49.2361 15.2942 46.463 15.2942ZM44.5003 19.3527C44.7312 18.1735 45.4986 17.4469 46.5215 17.4469C48.0416 17.4469 48.2263 18.8732 48.2455 19.3527H44.5003ZM41.026 23.4781C40.9152 23.1764 40.695 23.131 40.5711 23.131L40.3849 23.1618C40.107 23.2357 39.8523 23.2711 39.5821 23.2711C38.5485 23.2711 38.4622 22.5384 38.4622 21.721V17.9565H40.9544C41.0142 17.9565 41.0735 17.9447 41.1288 17.9218C41.1841 17.8989 41.2343 17.8654 41.2766 17.8231C41.319 17.7807 41.3525 17.7305 41.3754 17.6752C41.3983 17.6199 41.4101 17.5607 41.4101 17.5008V16.0238C41.4101 15.7852 41.2262 15.5929 40.9929 15.5728L40.9614 15.569H40.9553L40.9547 15.5684L38.4625 15.569V13.1329C38.4626 13.0732 38.4509 13.014 38.428 12.9588C38.4052 12.9036 38.3717 12.8534 38.3294 12.8111C38.2872 12.7689 38.237 12.7354 38.1818 12.7126C38.1266 12.6897 38.0674 12.678 38.0076 12.6781H36.0796C36.0089 12.6785 35.9394 12.6954 35.8764 12.7273C35.684 12.8081 35.624 12.9821 35.624 13.1191V21.624C35.624 22.9671 35.624 23.9368 36.4752 24.7888C37.2503 25.5647 38.4102 25.6794 39.0336 25.6794C39.9888 25.6794 40.6899 25.4508 41.1333 25.2399C41.2533 25.1821 41.5682 24.9627 41.3926 24.4794L41.0263 23.4781L41.026 23.4781ZM4.10951 16.6372C3.94324 16.5603 3.76546 16.4648 3.61075 16.3432C3.50204 16.2673 3.41009 16.1698 3.34059 16.0568L3.2821 15.9453L3.25436 15.8753C3.21867 15.7741 3.20045 15.6677 3.20047 15.5605C3.20047 15.3789 3.25282 15.2095 3.34054 15.064C3.51679 14.7515 3.84621 14.5191 4.18719 14.4182C5.20242 14.0873 6.30301 14.3967 7.19741 14.9124L7.36593 15.0009C7.46757 15.0617 7.57299 15.0994 7.6646 15.0994C7.81469 15.0994 7.94862 15.034 8.04324 14.9309L8.04078 14.9339C8.36943 14.5383 8.88973 13.7386 8.89894 13.7248C8.99439 13.5701 9.0036 13.36 8.91128 13.2006L8.81967 13.0783L8.68805 12.9729C7.2934 12.0046 5.50081 11.6752 3.83913 11.9461C2.87012 12.1108 1.92879 12.548 1.26304 13.28C0.188606 14.4337 -0.0330894 16.3187 0.805068 17.6671C1.39078 18.6154 2.3883 19.208 3.38735 19.6406C4.12393 19.9877 4.93281 20.2109 5.61709 20.6643C5.98729 20.8897 6.23514 21.2954 6.23514 21.7618C6.23514 22.2675 5.9311 22.6993 5.53321 22.9102C5.31771 23.024 5.10681 23.1142 4.86823 23.1619C4.63042 23.2096 4.38564 23.2234 4.14399 23.2157C4.00738 23.2109 3.87103 23.2004 3.7353 23.1842C2.93947 23.1133 2.23754 22.7447 1.53868 22.3952L1.48403 22.3699C1.36397 22.3213 1.23234 22.3252 1.11382 22.373C1.02145 22.4107 0.956813 22.4707 0.897551 22.5485C0.829847 22.6393 0.145627 23.7014 0.0971104 23.7969L0.034779 23.9777L0.0292969 24.0516C0.0292969 24.2001 0.0923958 24.3325 0.193212 24.4264C0.887464 25.0113 1.77567 25.3377 2.64925 25.5532C4.09855 25.8619 5.68178 25.8364 7.021 25.1576C9.26614 24.1269 10.0104 20.7881 8.30787 18.9679C7.17488 17.7802 5.55322 17.3154 4.10935 16.6373L4.10951 16.6372ZM23.6222 22.7169V19.933C23.6253 18.7154 23.6276 17.3361 22.5546 16.2632C21.9212 15.6305 21.0314 15.2942 19.9778 15.2942C18.8209 15.2942 18.1113 15.8637 17.7427 16.2031V16.0261C17.7388 15.9761 17.7365 15.9561 17.725 15.9091V15.9085L17.7218 15.8985L17.718 15.89L17.7095 15.8623L17.7049 15.8461L17.5864 15.6852L17.5625 15.666L17.5579 15.6622L17.5548 15.6609L17.5542 15.6603C17.478 15.6048 17.388 15.5702 17.2864 15.5702H15.3576C15.1059 15.5702 14.9027 15.7742 14.9027 16.0266V24.9502C14.9027 25.2019 15.1059 25.4059 15.3576 25.4059H17.2864C17.5126 25.4059 17.6974 25.2411 17.7343 25.0256L17.7428 24.9563L17.7415 23.1584H17.7428V18.3025C17.9899 18.1308 18.7026 17.7429 19.4292 17.7429C19.8517 17.7429 20.1873 17.8538 20.3997 18.067C20.7284 18.3948 20.783 19.0006 20.783 20.2328L20.7836 20.4352V24.9501C20.7836 25.2018 20.9883 25.4058 21.2393 25.4058H23.1673C23.3928 25.4058 23.5791 25.2411 23.6152 25.0256L23.623 24.9563L23.6224 23.1598L23.623 23.1544V22.718L23.6224 22.7174" fill="#231F20"/>
</g>
<defs>
<clipPath id="clip0_172_601">
<rect width="54.8246" height="30" fill="white"/>
</clipPath>
</defs>
</svg>
